<svg fill="none" height="64" viewBox="0 0 64 64" width="64" xmlns="http://www.w3.org/2000/svg"><path d="m32 64c17.6736 0 32-14.3264 32-32s-14.3264-32-32-32-32 14.3264-32 32 14.3264 32 32 32z" fill="#070a0e"/><path clip-rule="evenodd" d="m18.4864 42.7295c-.9568-.5856-1.5424-1.6256-1.5424-2.7456v-6.2528c0-.7424.6048-1.344 1.3472-1.3408.2368 0 .4704.064.6752.1824l14.1088 8.2272c.8256.48 1.3344 1.3632 1.3344 2.32v6.4768c.0032.8896-.7168 1.6128-1.6064 1.6128-.2976 0-.592-.0832-.8448-.2368zm21.0304-11.8688c.8256.48 1.3312 1.3664 1.3344 2.32v13.1456c0 .3872-.208.7456-.5472.9344l-3.088 1.7376c-.0384.0224-.08.0384-.1248.0512v-7.2992c0-.944-.496-1.8208-1.3088-2.3072l-12.3904-7.4112v-8.24c0-.7424.6048-1.344 1.3472-1.3408.2368 0 .4704.064.6752.1824zm6.176-9.7088c.8288.48 1.3376 1.3664 1.3376 2.3232v19.2c-.0032.3936-.2208.7552-.5664.944l-2.928 1.5808v-13.3664c0-.944-.496-1.8176-1.3024-2.304l-12.6656-7.5968v-7.8144c0-.2368.064-.4704.1792-.6752.3744-.64 1.1968-.8576 1.8368-.4864z" fill="#fff" fill-rule="evenodd"/></svg>