<svg width="33" height="33" viewBox="0 0 33 33" fill="none" xmlns="http://www.w3.org/2000/svg">
<circle cx="16.7128" cy="16.189" r="16" fill="url(#paint0_linear_241_13947)"/>
<path d="M23.715 22.5646L18.3047 9.48421C17.9995 8.80792 17.5459 8.47803 16.948 8.47803H16.4696C15.8717 8.47803 15.4181 8.80792 15.1129 9.48421L12.7583 15.1832H10.9768C10.4449 15.1873 10.0119 15.6162 10.0077 16.1523V16.1646C10.0119 16.6966 10.4449 17.1296 10.9768 17.1337H11.9335L9.6861 22.5646C9.64486 22.6842 9.62012 22.8079 9.62012 22.9358C9.62012 23.2409 9.71496 23.4801 9.88403 23.6657C10.0531 23.8512 10.2964 23.9419 10.6016 23.9419C10.8036 23.9378 10.9974 23.876 11.1583 23.7564C11.3315 23.6368 11.451 23.4636 11.5459 23.2657L14.0201 17.1296H15.7356C16.2675 17.1254 16.7005 16.6966 16.7047 16.1605V16.1358C16.7005 15.6038 16.2675 15.1708 15.7356 15.1667H14.8201L16.7088 10.4615L21.8552 23.2615C21.95 23.4595 22.0696 23.6327 22.2428 23.7522C22.4036 23.8718 22.6016 23.9337 22.7995 23.9378C23.1047 23.9378 23.3438 23.8471 23.517 23.6615C23.6902 23.476 23.7809 23.2368 23.7809 22.9316C23.7851 22.8079 23.7644 22.6801 23.715 22.5646Z" fill="white"/>
<defs>
<linearGradient id="paint0_linear_241_13947" x1="18.6261" y1="-5.75271" x2="-5.18186" y2="14.2793" gradientUnits="userSpaceOnUse">
<stop stop-color="#B6509E"/>
<stop offset="1" stop-color="#2EBAC6"/>
</linearGradient>
</defs>
</svg>
