<svg width="33" height="33" viewBox="0 0 33 33" fill="none" xmlns="http://www.w3.org/2000/svg">
<path d="M16.8931 32.189C25.7299 32.189 32.8931 25.0258 32.8931 16.189C32.8931 7.35217 25.7299 0.188965 16.8931 0.188965C8.05627 0.188965 0.893066 7.35217 0.893066 16.189C0.893066 25.0258 8.05627 32.189 16.8931 32.189Z" fill="#070A0E"/>
<path fill-rule="evenodd" clip-rule="evenodd" d="M10.1359 21.5539C9.65755 21.2611 9.36475 20.7411 9.36475 20.1811V17.0547C9.36475 16.6835 9.66715 16.3827 10.0383 16.3843C10.1567 16.3843 10.2735 16.4163 10.3759 16.4755L17.4303 20.5891C17.8431 20.8291 18.0975 21.2707 18.0975 21.7491V24.9875C18.0991 25.4323 17.7391 25.7939 17.2943 25.7939C17.1455 25.7939 16.9983 25.7523 16.8719 25.6755L10.1359 21.5539ZM20.6512 15.6196C21.064 15.8596 21.3168 16.3028 21.3184 16.7796V23.3524C21.3184 23.546 21.2144 23.7252 21.0448 23.8196L19.5008 24.6884C19.4816 24.6996 19.4608 24.7076 19.4384 24.714V21.0644C19.4384 20.5924 19.1904 20.154 18.784 19.9108L12.5888 16.2052V12.0852C12.5888 11.714 12.8912 11.4132 13.2624 11.4148C13.3808 11.4148 13.4976 11.4468 13.6 11.506L20.6512 15.6196ZM23.7392 10.7648C24.1536 11.0048 24.408 11.448 24.408 11.9264V21.5264C24.4064 21.7232 24.2976 21.904 24.1248 21.9984L22.6608 22.7888V16.1056C22.6608 15.6336 22.4128 15.1968 22.0096 14.9536L15.6768 11.1552V7.24801C15.6768 7.12961 15.7088 7.01281 15.7664 6.91041C15.9536 6.59041 16.3648 6.48161 16.6848 6.66721L23.7392 10.7648Z" fill="#00D395"/>
</svg>
