<svg width="64" height="64" viewBox="0 0 64 64" fill="none" xmlns="http://www.w3.org/2000/svg">
<path d="M32 0C49.6747 0 64 14.3281 64 32C64 49.6747 49.6747 64 32 64C14.3281 64 0 49.6733 0 32C0 14.3281 14.3281 0 32 0Z" fill="#F5AC37"/>
<path fill-rule="evenodd" clip-rule="evenodd" d="M16.7607 49.6404V49.7599L16.7549 49.7642V49.7844H30.6352C32.2062 49.806 33.7715 49.6807 35.3152 49.4042C36.941 49.086 38.525 48.5849 40.0356 47.9052C40.6906 47.6018 41.319 47.2352 41.953 46.8653C42.1135 46.7716 42.2744 46.6778 42.4361 46.5847C43.182 46.0533 43.8963 45.4773 44.576 44.8653C46.4365 43.1834 47.8765 41.0853 48.7765 38.7452C48.837 38.4832 49.0933 38.3147 49.3568 38.3651H53.1369C53.4378 38.3651 53.5372 38.2643 53.5372 37.9244V35.5038C53.5573 35.2719 53.5573 35.0372 53.5372 34.8054C53.5372 34.7448 53.5528 34.6843 53.5683 34.624C53.5993 34.5037 53.6302 34.3838 53.5372 34.2639H50.3792C49.9976 34.2639 49.9976 34.2236 49.9976 33.8837C50.1071 32.6655 50.1071 31.4429 49.9976 30.2247C49.9775 29.8647 50.0581 29.8647 50.3375 29.8647H53.098C53.4191 29.8647 53.5386 29.784 53.5386 29.4643V26.184C53.5287 25.9667 53.5236 25.8566 53.466 25.8007C53.4067 25.7434 53.2919 25.7434 53.0591 25.7434H49.4792C49.1999 25.7909 48.932 25.6022 48.8816 25.3229C48.4712 24.2501 47.9485 23.2233 47.3192 22.2628C46.6856 21.3153 45.9713 20.4254 45.1793 19.6031C44.1267 18.5519 42.9444 17.639 41.6599 16.8829C39.7231 15.7583 37.6049 14.9706 35.4002 14.5631C34.3303 14.3658 33.2488 14.2463 32.1602 14.2031H17.161C16.7607 14.2031 16.7607 14.2837 16.7607 14.6034V25.3833C16.7607 25.7635 16.68 25.7635 16.3805 25.7635H12.0806C11.7609 25.7635 11.7609 25.8226 11.7609 26.0429V29.5623C11.7609 29.882 11.8603 29.882 12.1008 29.882H16.441C16.7607 29.882 16.7607 29.941 16.7607 30.1815V33.9414C16.7607 34.2812 16.6599 34.2812 16.4007 34.2812H11.7609V38.0814C11.7609 38.4011 11.8603 38.4011 12.1008 38.4011H16.441C16.7607 38.4011 16.7607 38.44 16.7607 38.7006V43.4008V44.9805V49.6404ZM44.3815 25.4203C44.416 25.5096 44.416 25.6089 44.3815 25.6996H44.478C44.4376 25.8192 44.2375 25.8595 44.2375 25.8595H21.1584C20.7782 25.8595 20.7782 25.7788 20.7782 25.4793V18.38C20.7782 18.1194 20.8185 17.9999 21.118 17.9999H31.8577C33.001 17.9898 34.1415 18.1093 35.2575 18.3599C37.4694 18.8841 39.5272 19.9266 41.2581 21.3998C41.6037 21.6575 41.9118 21.9614 42.1782 22.2998C42.7427 22.8599 43.2381 23.4835 43.6586 24.1603C43.9379 24.5563 44.1784 24.9782 44.3815 25.4203ZM45.3389 34.2594H33.1794H21.2589C21.0157 34.2594 20.8959 34.2594 20.8368 34.1995C20.7794 34.1412 20.7794 34.0264 20.7794 33.8V30.2403C20.7794 29.9595 20.8601 29.8601 21.1596 29.8601H45.359C45.6197 29.8601 45.7392 29.9595 45.7392 30.2C45.8385 31.4384 45.8385 32.6826 45.7392 33.9195C45.7205 34.2594 45.5981 34.2594 45.3389 34.2594ZM44.3812 38.42C44.0414 38.3825 43.6987 38.3825 43.3588 38.42H21.1797C20.8802 38.42 20.7794 38.42 20.7794 38.8203V45.7611C20.7794 46.0808 20.7794 46.1615 21.1797 46.1615H31.4197C31.9093 46.1989 32.3989 46.1644 32.8784 46.0621C34.3645 45.9555 35.8261 45.633 37.2201 45.1016C37.7269 44.9259 38.2165 44.697 38.6788 44.4219H38.8185C41.219 43.1734 43.1688 41.2121 44.3985 38.8044C44.3985 38.8044 44.5382 38.502 44.3812 38.4228V38.42Z" fill="#FEFEFD"/>
</svg>
