<svg width="33" height="33" viewBox="0 0 33 33" fill="none" xmlns="http://www.w3.org/2000/svg">
<path d="M16.205 0.188965C25.0423 0.188965 32.205 7.35304 32.205 16.189C32.205 25.0263 25.0423 32.189 16.205 32.189C7.36903 32.189 0.204956 25.0256 0.204956 16.189C0.204956 7.35304 7.36903 0.188965 16.205 0.188965Z" fill="#F5AC37"/>
<path fill-rule="evenodd" clip-rule="evenodd" d="M8.58531 25.0092V25.0689L8.58243 25.0711V25.0812H15.5226C16.3081 25.092 17.0908 25.0293 17.8626 24.8911C18.6755 24.732 19.4675 24.4814 20.2228 24.1416C20.5503 23.9899 20.8645 23.8066 21.1815 23.6216C21.2618 23.5748 21.3422 23.5279 21.423 23.4813C21.796 23.2156 22.1531 22.9276 22.493 22.6216C23.4232 21.7807 24.1432 20.7316 24.5932 19.5616C24.6235 19.4306 24.7516 19.3463 24.8834 19.3715H26.7734C26.9239 19.3715 26.9736 19.3211 26.9736 19.1512V17.9409C26.9837 17.825 26.9837 17.7076 26.9736 17.5917C26.9736 17.5614 26.9814 17.5312 26.9891 17.501C27.0046 17.4408 27.0201 17.3809 26.9736 17.3209H25.3946C25.2038 17.3209 25.2038 17.3008 25.2038 17.1309C25.2585 16.5217 25.2585 15.9105 25.2038 15.3013C25.1937 15.1213 25.234 15.1213 25.3737 15.1213H26.754C26.9145 15.1213 26.9743 15.081 26.9743 14.9212V13.281C26.9693 13.1723 26.9668 13.1173 26.938 13.0894C26.9084 13.0607 26.851 13.0607 26.7345 13.0607H24.9446C24.8049 13.0844 24.671 12.9901 24.6458 12.8504C24.4406 12.314 24.1792 11.8007 23.8646 11.3204C23.5478 10.8466 23.1907 10.4017 22.7947 9.99055C22.2683 9.46495 21.6772 9.00846 21.035 8.63046C20.0665 8.06813 19.0074 7.67429 17.9051 7.47053C17.3701 7.37189 16.8294 7.31213 16.2851 7.29053H8.78548C8.58531 7.29053 8.58531 7.33085 8.58531 7.49069V12.8807C8.58531 13.0707 8.54499 13.0707 8.39523 13.0707H6.24529C6.08545 13.0707 6.08545 13.1003 6.08545 13.2104V14.9701C6.08545 15.13 6.13513 15.13 6.25537 15.13H8.42547C8.58531 15.13 8.58531 15.1595 8.58531 15.2797V17.1597C8.58531 17.3296 8.53491 17.3296 8.40531 17.3296H6.08545V19.2297C6.08545 19.3895 6.13513 19.3895 6.25537 19.3895H8.42547C8.58531 19.3895 8.58531 19.409 8.58531 19.5393V21.8894V22.6792V25.0092ZM22.3957 12.8991C22.413 12.9438 22.413 12.9934 22.3957 13.0388H22.444C22.4238 13.0986 22.3237 13.1187 22.3237 13.1187H10.7842C10.5941 13.1187 10.5941 13.0784 10.5941 12.9286V9.37901C10.5941 9.24869 10.6142 9.18893 10.764 9.18893H16.1338C16.7055 9.18389 17.2758 9.24365 17.8338 9.36893C18.9397 9.63102 19.9686 10.1523 20.834 10.8889C21.0068 11.0178 21.1609 11.1697 21.2941 11.3389C21.5764 11.619 21.824 11.9307 22.0343 12.2691C22.174 12.4671 22.2942 12.6781 22.3957 12.8991ZM22.8744 17.3187H16.7947H10.8345C10.7129 17.3187 10.6529 17.3187 10.6234 17.2887C10.5947 17.2596 10.5947 17.2022 10.5947 17.089V15.3091C10.5947 15.1687 10.635 15.1191 10.7848 15.1191H22.8845C23.0148 15.1191 23.0746 15.1687 23.0746 15.289C23.1243 15.9082 23.1243 16.5303 23.0746 17.1488C23.0652 17.3187 23.004 17.3187 22.8744 17.3187ZM22.3956 19.399C22.2257 19.3802 22.0543 19.3802 21.8844 19.399H10.7949C10.6451 19.399 10.5947 19.399 10.5947 19.5991V23.0696C10.5947 23.2294 10.5947 23.2697 10.7949 23.2697H15.9148C16.1596 23.2884 16.4044 23.2712 16.6442 23.22C17.3872 23.1668 18.118 23.0055 18.815 22.7398C19.0685 22.652 19.3133 22.5375 19.5444 22.4H19.6142C20.8145 21.7757 21.7894 20.7951 22.4042 19.5912C22.4042 19.5912 22.4741 19.44 22.3956 19.4004V19.399Z" fill="#FEFEFD"/>
</svg>
