<svg width="64" height="64" viewBox="0 0 64 64" fill="none" xmlns="http://www.w3.org/2000/svg">
<path d="M64 31.9998C64 14.3265 49.6731 -0.000488281 32 -0.000488281C14.3269 -0.000488281 0 14.3265 0 31.9998C0 49.6731 14.3269 64.0001 32 64.0001C49.6731 64.0001 64 49.6731 64 31.9998Z" fill="#F2F4F7"/>
<path d="M31.7316 8.00098L31.4109 9.09407V40.8331L31.7316 41.1538L46.4633 32.4461L31.7316 8.00098Z" fill="#343434"/>
<path d="M31.7317 8.00098L17 32.4461L31.7317 41.1538V8.00098Z" fill="#8C8C8C"/>
<path d="M31.7318 43.944L31.5507 44.1644V55.4706L31.7318 56.0008L46.4743 35.2407L31.7318 43.944Z" fill="#3C3C3B"/>
<path d="M31.7317 56.001V43.9442L17 35.2388L31.7317 56.001Z" fill="#8C8C8C"/>
<path d="M31.7318 41.1534L46.4635 32.4458L31.7318 25.7476V41.1534Z" fill="#141414"/>
<path d="M17 32.446L31.7317 41.1537V25.75L17 32.446Z" fill="#393939"/>
</svg>
