<svg fill="none" height="64" viewBox="0 0 64 64" width="64" xmlns="http://www.w3.org/2000/svg" xmlns:xlink="http://www.w3.org/1999/xlink"><linearGradient id="a" gradientUnits="userSpaceOnUse" x1="32" x2="32" y1="0" y2="64"><stop offset="0" stop-color="#b3b2d3"/><stop offset=".526" stop-color="#8c8ada"/><stop offset="1" stop-color="#6d69de"/></linearGradient><clipPath id="b"><path d="m0 0h64v64h-64z"/></clipPath><g clip-path="url(#b)"><path d="m64 32c0-17.6731-14.3269-32-32-32s-32 14.3269-32 32 14.3269 32 32 32 32-14.3269 32-32z" fill="url(#a)"/><g opacity=".8"><path clip-rule="evenodd" d="m49.8948 47.5788v-6.3495l-.017-.0005-4.37-10.071h-6.9923l4.1518 9.8525h-13.537c-2.6103 0-5.0738-1.028-6.9365-2.8945-1.8628-1.8675-2.89-4.3362-2.89-6.9515 0-2.6152 1.0272-5.084 2.89-6.9505 1.8625-1.8665 4.3262-2.8945 6.9365-2.8945l12.8982-.0142-2.7312-6.5685-10.167.0142c-9.032 0-16.7093 7.3623-16.7093 16.4135 0 9.0513 7.6773 16.4145 16.7093 16.4145zm-21.8623-17.2967c1.8103 0 3.2775-1.4705 3.2775-3.2843 0-1.8137-1.4672-3.2842-3.2775-3.2842-1.8102 0-3.2775 1.4705-3.2775 3.2842 0 1.8138 1.4673 3.2843 3.2775 3.2843zm3.2775 5.1452c0 1.8138-1.4672 3.2843-3.2775 3.2843-1.8102 0-3.2775-1.4705-3.2775-3.2843 0-1.8137 1.4673-3.2842 3.2775-3.2842 1.8103 0 3.2775 1.4705 3.2775 3.2842z" fill="#fff" fill-rule="evenodd"/><path d="m49.8948 41.2293h.625v-.6062l-.606-.0185zm0 6.3495v.625h.625v-.625zm-.017-6.35-.5735.2488.158.3637.3965.0123zm-4.37-10.071.5735-.249-.1633-.376h-.4102zm-6.9923 0v-.625h-.9415l.3658.8675zm4.1518 9.8525v.625h.9415l-.3655-.8677zm-13.537-19.691v.625h.0005zm12.8982-.0142.0008.625.9357-.001-.3592-.864zm-2.7312-6.5685.577-.24-.1603-.3855-.4177.0005zm-10.167.0142v.625h.0007zm20.1395 26.4785v6.3495h1.25v-6.3495zm.589.6243.017.0005.038-1.2495-.017-.0005zm-4.9243-10.447 4.3698 10.071 1.1467-.4975-4.3697-10.0713zm-6.419.3762h6.9923v-1.25h-6.9923zm4.7278 8.9848-4.1518-9.8525-1.1517.4852 4.1515 9.8528zm-14.113.8677h13.537v-1.25h-13.537zm-7.379-3.078c1.9787 1.9828 4.601 3.078 7.379 3.078v-1.25c-2.4423 0-4.7475-.9605-6.4943-2.711zm-3.0725-7.393c0 2.7825 1.094 5.4095 3.0725 7.393l.885-.8827c-1.7473-1.7518-2.7075-4.0623-2.7075-6.5103zm3.0725-7.392c-1.9785 1.9825-3.0725 4.6095-3.0725 7.392h1.25c0-2.4482.9602-4.7585 2.7075-6.509zm7.379-3.078c-2.778 0-5.4003 1.0953-7.379 3.078l.885.883c1.7467-1.7505 4.0517-2.711 6.494-2.711zm12.8975-.0142-12.8983.0142.0013 1.25 12.8985-.0142zm-3.3078-5.7035 2.7315 6.5685 1.1543-.48-2.7315-6.5685zm-9.589.3992 10.167-.0142-.0017-1.25-10.167.0142zm-16.085 15.7885c0-8.6912 7.3825-15.7885 16.0843-15.7885v-1.25c-9.3623 0-17.3343 7.6273-17.3343 17.0385zm16.0843 15.7895c-8.7018 0-16.0843-7.0982-16.0843-15.7895h-1.25c0 9.4113 7.972 17.0395 17.3343 17.0395zm20.7645 0h-20.7645v1.25h20.7645zm-19.2098-19.956c0 1.4698-1.1887 2.6593-2.6525 2.6593v1.25c2.1565 0 3.9025-1.7515 3.9025-3.9093zm-2.6525-2.6592c1.4638 0 2.6525 1.1895 2.6525 2.6592h1.25c0-2.1577-1.746-3.9092-3.9025-3.9092zm-2.6525 2.6592c0-1.4697 1.1888-2.6592 2.6525-2.6592v-1.25c-2.1565 0-3.9025 1.7515-3.9025 3.9092zm2.6525 2.6593c-1.4637 0-2.6525-1.1895-2.6525-2.6593h-1.25c0 2.1578 1.746 3.9093 3.9025 3.9093zm0 9.6795c2.1565 0 3.9025-1.7515 3.9025-3.9093h-1.25c0 1.4698-1.1887 2.6593-2.6525 2.6593zm-3.9025-3.9093c0 2.1578 1.746 3.9093 3.9025 3.9093v-1.25c-1.4637 0-2.6525-1.1895-2.6525-2.6593zm3.9025-3.9092c-2.1565 0-3.9025 1.7515-3.9025 3.9092h1.25c0-1.47 1.1888-2.6592 2.6525-2.6592zm3.9025 3.9092c0-2.1577-1.746-3.9092-3.9025-3.9092v1.25c1.4638 0 2.6525 1.1892 2.6525 2.6592z" fill="#000"/></g></g></svg>