<svg fill="none" height="64" viewBox="0 0 64 64" width="64" xmlns="http://www.w3.org/2000/svg" xmlns:xlink="http://www.w3.org/1999/xlink"><clipPath id="a"><rect height="64" rx="32" width="64"/></clipPath><clipPath id="b"><path d="m8 8h48v48h-48z"/></clipPath><g clip-path="url(#a)"><rect fill="#00193c" height="64" rx="32" width="64"/><path d="m64 32c0-17.6731-14.3269-32-32-32s-32 14.3269-32 32 14.3269 32 32 32 32-14.3269 32-32z" fill="#00193c"/><g clip-path="url(#b)" fill="#fff"><path d="m22.1084 35.3308c1.3795 0 2.7253-.4598 3.8131-1.3009l-8.7477-8.7477c-2.1084 2.7253-1.6037 6.6505 1.1215 8.7589 1.0991.8299 2.4337 1.2897 3.8131 1.2897z"/><path d="m48.1271 29.0841c0-1.3795-.4598-2.7253-1.3009-3.8131l-8.7477 8.7477c2.7252 2.1084 6.6392 1.6037 8.7477-1.1215.8411-1.0879 1.3009-2.4337 1.3009-3.8131z"/><path d="m52.5346 19.5625-3.8692 3.8692c3.1178 3.7345 2.6243 9.2972-1.1103 12.4149-3.2747 2.7365-8.0299 2.7365-11.3046 0l-4.2505 4.2505-4.2393-4.2393c-3.7345 3.1178-9.2971 2.6243-12.4149-1.1103-2.7365-3.2747-2.7365-8.0299 0-11.3046l-1.9851-1.9851-1.8841-1.8953c-2.2766 3.7458-3.4766 8.0523-3.4766 12.4374 0 13.2561 10.7439 24 24 24s24-10.7439 24-24c.0112-4.3851-1.2-8.6916-3.4654-12.4374z"/><path d="m49.3608 15.4356c-9.1402-9.58876-24.3253-9.94764-33.914-.8075-.2804.2692-.5496.5384-.8075.8075-.5944.6281-1.1552 1.2785-1.6823 1.9626l19.043 19.0542 19.043-19.0542c-.5159-.6841-1.0878-1.3345-1.6822-1.9626zm-17.3608-4.2953c5.6075 0 10.8337 2.1645 14.7589 6.1121l-14.7589 14.7589-14.7589-14.7589c3.9253-3.9476 9.1514-6.1121 14.7589-6.1121z"/></g></g></svg>