<svg width="64" height="64" viewBox="0 0 64 64" fill="none" xmlns="http://www.w3.org/2000/svg">
<path fill-rule="evenodd" clip-rule="evenodd" d="M64 32C64 49.6731 49.6731 64 32 64C14.3269 64 0 49.6731 0 32C0 14.3269 14.3269 0 32 0C49.6731 0 64 14.3269 64 32ZM45.7123 57.0261L57.0261 45.7123L51.6451 40.3315C49.4869 45.4139 45.4139 49.4869 40.3315 51.6451L45.7123 57.0261ZM25.1547 52.2115C19.8753 50.424 15.5231 46.6261 13.0092 41.7293L8.6472 46.0915L19.9609 57.4051L25.1547 52.2115ZM12.3547 23.6685C14.513 18.5859 18.5859 14.513 23.6685 12.3548L19.3137 8L8 19.3137L12.3547 23.6685ZM41.7291 13.0094L46.3595 8.37904L57.6733 19.6927L52.2112 25.1547C50.4237 19.8755 46.6261 15.5233 41.7291 13.0094Z" fill="#060710"/>
<path d="M39.3837 28.5202C38.916 28.2669 38.3144 28.2669 37.7797 28.5202L34.0365 30.6093L31.4965 31.9386L27.8203 34.0277C27.3525 34.2807 26.7509 34.2807 26.2163 34.0277L23.3421 32.3818C22.8741 32.1285 22.54 31.6221 22.54 31.0525V27.8871C22.54 27.3807 22.8072 26.8743 23.3421 26.5578L26.2163 24.9751C26.684 24.7221 27.2856 24.7221 27.8203 24.9751L30.6944 26.621C31.1624 26.8743 31.4965 27.3807 31.4965 27.9506V30.0394L34.0365 28.6469V26.4946C34.0365 25.9879 33.7691 25.4815 33.2344 25.165L27.8872 22.1898C27.4192 21.9367 26.8179 21.9367 26.2829 22.1898L20.8021 25.2285C20.2674 25.4815 20 25.9879 20 26.4946V32.445C20 32.9514 20.2674 33.4578 20.8021 33.7743L26.2163 36.7498C26.684 37.0029 27.2856 37.0029 27.8203 36.7498L31.4965 34.7239L34.0365 33.3314L37.7128 31.3055C38.1808 31.0525 38.7821 31.0525 39.3171 31.3055L42.1912 32.8882C42.6589 33.1413 42.9933 33.6479 42.9933 34.2175V37.3826C42.9933 37.8893 42.7259 38.3957 42.1912 38.7122L39.3837 40.2946C38.916 40.5479 38.3144 40.5479 37.7797 40.2946L34.9056 38.7122C34.4376 38.4589 34.1035 37.9525 34.1035 37.3826V35.357L31.5635 36.7498V38.8386C31.5635 39.3453 31.8309 39.8517 32.3656 40.1682L37.7797 43.1434C38.2475 43.3965 38.8491 43.3965 39.3837 43.1434L44.7979 40.1682C45.2659 39.9149 45.6 39.4085 45.6 38.8386V32.8247C45.6 32.3183 45.3325 31.8119 44.7979 31.4954L39.3837 28.5202Z" fill="white"/>
</svg>
