<svg width="64" height="64" viewBox="0 0 64 64" fill="none" xmlns="http://www.w3.org/2000/svg">
<path d="M64 31.9998C64 14.3265 49.6731 -0.000488281 32 -0.000488281C14.3269 -0.000488281 0 14.3265 0 31.9998C0 49.6731 14.3269 64.0001 32 64.0001C49.6731 64.0001 64 49.6731 64 31.9998Z" fill="#7630EC"/>
<path d="M41.4074 26.0766C40.739 25.7147 39.8795 25.7147 39.1156 26.0766L33.7683 29.0608L30.1399 30.96L24.888 33.9444C24.2199 34.306 23.3604 34.306 22.5965 33.9444L18.4905 31.5931C17.8221 31.2312 17.3447 30.5079 17.3447 29.6939V25.1722C17.3447 24.4487 17.7266 23.7251 18.4905 23.273L22.5965 21.0122C23.2649 20.6504 24.1244 20.6504 24.888 21.0122L28.994 23.3634C29.6624 23.7251 30.1399 24.4487 30.1399 25.2626V28.247L33.7683 26.2574V23.1826C33.7683 22.4591 33.3866 21.7356 32.6226 21.2835L24.9835 17.033C24.3151 16.6713 23.4559 16.6713 22.692 17.033L14.862 21.3739C14.0981 21.7356 13.7162 22.4591 13.7162 23.1826V31.6835C13.7162 32.4068 14.0981 33.1304 14.862 33.5825L22.5965 37.8329C23.2649 38.1948 24.1244 38.1948 24.888 37.8329L30.1399 34.9392L33.7683 32.9496L39.0201 30.0556C39.6886 29.6939 40.548 29.6939 41.3119 30.0556L45.4178 32.3164C46.0863 32.6783 46.5637 33.4016 46.5637 34.2156V38.7373C46.5637 39.4609 46.1818 40.1844 45.4178 40.6365L41.4074 42.8973C40.739 43.259 39.8795 43.259 39.1156 42.8973L35.0097 40.6365C34.3413 40.2748 33.8638 39.5513 33.8638 38.7373V35.8436L30.2353 37.8329V40.8173C30.2353 41.5409 30.6173 42.2642 31.3813 42.7165L39.1156 46.967C39.784 47.3286 40.6435 47.3286 41.4074 46.967L49.1418 42.7165C49.8102 42.3549 50.2877 41.6313 50.2877 40.8173V32.226C50.2877 31.5027 49.9057 30.7791 49.1418 30.3268L41.4074 26.0766Z" fill="white"/>
</svg>
