<svg fill="none" height="64" viewBox="0 0 64 64" width="64" xmlns="http://www.w3.org/2000/svg" xmlns:xlink="http://www.w3.org/1999/xlink"><radialGradient id="a" cx="0" cy="0" gradientTransform="matrix(31.04007277 42.98670691 -42.98670691 31.04007277 20.9067 15.3067)" gradientUnits="userSpaceOnUse" r="1"><stop offset="0" stop-color="#ffd794"/><stop offset="1" stop-color="#ed5a37"/></radialGradient><linearGradient id="b" gradientUnits="userSpaceOnUse" x1="8.96002" x2="8.96002" y1="16.3201" y2="48.6401"><stop offset="0" stop-color="#ffe090"/><stop offset="1" stop-color="#ffe090" stop-opacity="0"/></linearGradient><linearGradient id="c"><stop offset="0" stop-color="#df3600"/><stop offset="1" stop-color="#df3600" stop-opacity="0"/></linearGradient><linearGradient id="d" gradientUnits="userSpaceOnUse" x1="21.12" x2="21.12" xlink:href="#c" y1="20.8" y2="39.04"/><linearGradient id="e" gradientUnits="userSpaceOnUse" x1="6.08002" x2="22.8411" xlink:href="#c" y1="34.1637" y2="34.1637"/><linearGradient id="f" gradientUnits="userSpaceOnUse" x1="45.6533" x2="45.6533" xlink:href="#c" y1="-1.28003" y2="27.6266"/><clipPath id="g"><path d="m0 0h64v64h-64z"/></clipPath><mask id="h" height="64" maskUnits="userSpaceOnUse" width="64" x="0" y="0"><path d="m64 0h-64v64h64z" fill="#fff"/></mask><mask id="i" height="64" maskUnits="userSpaceOnUse" width="64" x="0" y="0"><path d="m32 64c17.6731 0 32-14.3269 32-32s-14.3269-32-32-32-32 14.3269-32 32 14.3269 32 32 32z" fill="url(#a)"/></mask><g clip-path="url(#g)"><g mask="url(#h)"><path d="m32 64c17.6731 0 32-14.3269 32-32s-14.3269-32-32-32-32 14.3269-32 32 14.3269 32 32 32z" fill="url(#a)"/><g mask="url(#i)"><path d="m-1.06665 17.6001c0-.7069.573075-1.28 1.28-1.28h17.49335c.7069 0 1.28.5731 1.28 1.28v29.76c0 .7068-.5731 1.28-1.28 1.28h-17.49335c-.706925 0-1.28-.5732-1.28-1.28z" fill="url(#b)" opacity=".2"/><path d="m38.6133 43.4133c0-.7069.5732-1.28 1.28-1.28h22.8267c.7069 0 1.28.5731 1.28 1.28v11.0933c0 .7069-.5731 1.28-1.28 1.28h-22.8267c-.7068 0-1.28-.5731-1.28-1.28z" fill="#e74310" opacity=".2"/><path d="m53.44 46.8267c.7069 0 1.28.5731 1.28 1.28v21.5466c0 .7069-.5731 1.28-1.28 1.28h-8.4267c-.7068 0-1.28-.5731-1.28-1.28v-21.5466c0-.7069.5732-1.28 1.28-1.28z" fill="#df3600" opacity=".2"/><path d="m25.92 20.8c.7069 0 1.28.5732 1.28 1.28v17.1734c0 .7069-.5731 1.28-1.28 1.28h-9.4933c-.7069 0-1.28-.5731-1.28-1.28v-17.1734c0-.7068.5731-1.28 1.28-1.28z" fill="url(#d)" opacity=".1"/><path d="m6.08002 25.9201c0-.7068.57307-1.28 1.28-1.28h15.57338c.7068 0 1.28.5732 1.28 1.28v16.32c0 .7069-.5732 1.28-1.28 1.28h-15.57338c-.70693 0-1.28-.5731-1.28-1.28z" fill="url(#e)" opacity=".1"/><path d="m64 8.74683c.7069 0 1.28.57307 1.28 1.27997v21.5467c0 .7069-.5731 1.28-1.28 1.28h-19.84c-.7069 0-1.28-.5731-1.28-1.28v-21.5467c0-.7069.5731-1.27997 1.28-1.27997z" fill="#ff9776" opacity=".2"/><path d="m51.9467-5.54663c.7069 0 1.28.57308 1.28 1.28v23.68003c0 .7068-.5731 1.28-1.28 1.28h-11.0933c-.7069 0-1.28-.5732-1.28-1.28v-23.68003c0-.70692.5731-1.28 1.28-1.28z" fill="#ffca8c" opacity=".2"/><path d="m57.7067-1.28003c.7069 0 1.28.573077 1.28 1.28000176v26.34662824c0 .7069-.5731 1.28-1.28 1.28h-24.1067c-.7069 0-1.28-.5731-1.28-1.28v-26.34662864c0-.70692436.5731-1.28000136 1.28-1.28000136z" fill="url(#f)" opacity=".2"/><path d="m22.6133-8.74658c.7069 0 1.28.57308 1.28 1.28v17.70668c0 .7069-.5731 1.28-1.28 1.28h-8.4266c-.7069 0-1.28-.5731-1.28-1.28v-17.70668c0-.70692.5731-1.28 1.28-1.28z" fill="#df3600" opacity=".1"/><path d="m23.5733 46.1868c.7069 0 1.28.5731 1.28 1.28v15.2533c0 .7069-.5731 1.28-1.28 1.28h-21.43997c-.70692 0-1.279997-.5731-1.279997-1.28l.000001-15.2533c0-.7069.573076-1.28 1.279996-1.28z" fill="#df3600" opacity=".1"/><path d="m42.4533 37.6533c.7069 0 1.28.5731 1.28 1.28v23.7867c0 .7069-.5731 1.28-1.28 1.28h-24.5333c-.7069 0-1.28-.5731-1.28-1.28v-23.7867c0-.7069.5731-1.28 1.28-1.28z" fill="#ffd494" opacity=".1"/><path d="m34.3467.00000112c.7069.00000003 1.28.57307488 1.28 1.27999888v6.18667c0 .70692-.5731 1.28-1.28 1.28h-25.60003c-.70692 0-1.28-.57308-1.28-1.28v-6.18667c0-.706925.57308-1.28000003 1.28-1.28z" fill="#ffd494" opacity=".2"/><path d="m14.1599 63.3769 47.9369-47.937-1.6441-1.644-47.9369 47.9369z" fill="#df3600" opacity=".1"/><path d="m10.5639 59.8876 47.937-47.9369-2.1406-2.14053-47.9369 47.93693z" fill="#df3600" opacity=".1"/><path d="m8.54054 57.6508 47.93696-47.93693-2.1405-2.14052-47.93698 47.93695z" fill="#f45c2c" opacity=".1"/><path d="m6.6205 55.3041 47.9369-47.93691-1.7617-1.7617-47.9369 47.93691z" fill="#f45c2c" opacity=".2"/><path d="m4.85505 53.5387 47.93695-47.93689-1.7617-1.7617-47.93694 47.93689z" fill="#ffbc6e" opacity=".1"/><path d="m3.68178 51.1921 47.93692-47.93697-1.7617-1.7617-47.93692 47.93697z" fill="#df3600" opacity=".1"/><g fill="#ffd5a4"><path d="m-1.97164 37.112 37.79874-37.798768-1.7617-1.761692-37.79873 37.79876z" opacity=".09"/><path d="m-3.99831 34.9738 37.79871-37.79875-1.7617-1.7617-37.7987 37.79875z" opacity=".08"/><path d="m-5.8116 32.5204 37.7987-37.79872-1.7617-1.7617-37.7987 37.79872z" opacity=".05"/><path d="m1.01499 42.2494 43.90101-43.90101-1.7617-1.7617-43.901004 43.90101z" opacity=".2"/><path d="m2.18833 45.0228 43.90097-43.90097-1.7617-1.761699-43.900964 43.900969z" opacity=".2"/><path d="m.268426 39.0321 38.963474-38.9634965-1.7617-1.7616935-38.96347 38.96349z" opacity=".1"/></g><path d="m14.0891 63.4128 47.937-47.937-3.5147-3.5146-47.9369 47.9369z" fill="#df3600" opacity=".1"/><path d="m14.0891 63.4128 47.937-47.937-3.5326-3.5325-47.9369 47.9369z" fill="#df3600" opacity=".1"/></g><g fill="#fff"><path d="m31.9527 38.9047-12.1749-7.2021 12.1749-20.1967 12.1639 20.1967z"/><path d="m31.9527 51.1671-12.1749-17.1476 12.1749 7.1913 12.1749-7.1913z"/></g></g></g></svg>