<svg width="64" height="64" viewBox="0 0 64 64" fill="none" xmlns="http://www.w3.org/2000/svg">
<g clip-path="url(#clip0_7445_737)">
<path d="M32 64C49.6731 64 64 49.6731 64 32C64 14.3269 49.6731 0 32 0C14.3269 0 0 14.3269 0 32C0 49.6731 14.3269 64 32 64Z" fill="url(#paint0_linear_7445_737)"/>
<path d="M50.976 26.72H47.1782C45.088 20.9178 39.4662 16.9382 32.0525 16.9382H19.8605V26.72H15.6262V30.2298H19.8605V33.9098H15.6262V37.4182H19.8605V47.0822H32.0525C39.3805 47.0822 44.9587 43.136 47.1027 37.4182H50.9747V33.9085H47.9565C48.0335 33.2786 48.0728 32.6448 48.0742 32.0102V31.9245C48.0742 31.3485 48.0422 30.7827 47.9885 30.2285H50.9862V26.7187L50.976 26.72ZM23.2742 20.064H32.0525C37.4925 20.064 41.5347 22.7418 43.4022 26.7098H23.2742V20.064ZM32.0525 43.9258H23.2742V37.408H43.3805C41.504 41.312 37.472 43.9258 32.0525 43.9258ZM44.5427 32.0858C44.5437 32.6926 44.5009 33.2988 44.4147 33.8995H23.2742V30.2195H44.4262C44.5037 30.8103 44.543 31.4054 44.544 32.0013L44.5427 32.0858Z" fill="white"/>
</g>
<defs>
<linearGradient id="paint0_linear_7445_737" x1="32" y1="73.088" x2="32" y2="-6.72" gradientUnits="userSpaceOnUse">
<stop stop-color="#4CAF50"/>
<stop offset="1" stop-color="#8BC34A"/>
</linearGradient>
<clipPath id="clip0_7445_737">
<rect width="64" height="64" fill="white"/>
</clipPath>
</defs>
</svg>
