<svg width="64" height="64" viewBox="0 0 64 64" fill="none" xmlns="http://www.w3.org/2000/svg">
<path d="M64 32.0001C64 14.3268 49.6731 -0.000244141 32 -0.000244141C14.3269 -0.000244141 0 14.3268 0 32.0001C0 49.6733 14.3269 64.0004 32 64.0004C49.6731 64.0004 64 49.6733 64 32.0001Z" fill="white"/>
<path d="M41.4074 26.0769C40.739 25.7149 39.8795 25.7149 39.1156 26.0769L33.7683 29.061L30.1399 30.9602L24.888 33.9446C24.2199 34.3063 23.3604 34.3063 22.5965 33.9446L18.4905 31.5933C17.8221 31.2314 17.3447 30.5081 17.3447 29.6942V25.1725C17.3447 24.4489 17.7266 23.7253 18.4905 23.2733L22.5965 21.0124C23.2649 20.6507 24.1244 20.6507 24.888 21.0124L28.9939 23.3637C29.6624 23.7253 30.1399 24.4489 30.1399 25.2629V28.2473L33.7683 26.2577V23.1829C33.7683 22.4593 33.3866 21.7359 32.6227 21.2837L24.9835 17.0333C24.3151 16.6715 23.4559 16.6715 22.692 17.0333L14.862 21.3741C14.0981 21.7359 13.7162 22.4593 13.7162 23.1829V31.6838C13.7162 32.4071 14.0981 33.1306 14.862 33.5827L22.5965 37.8332C23.2649 38.1951 24.1244 38.1951 24.888 37.8332L30.1399 34.9394L33.7683 32.9498L39.0201 30.0558C39.6886 29.6942 40.548 29.6942 41.3119 30.0558L45.4178 32.3167C46.0863 32.6786 46.5637 33.4019 46.5637 34.2159V38.7375C46.5637 39.4611 46.1818 40.1847 45.4178 40.6367L41.4074 42.8976C40.739 43.2592 39.8795 43.2592 39.1156 42.8976L35.0097 40.6367C34.3413 40.2751 33.8638 39.5515 33.8638 38.7375V35.8438L30.2353 37.8332V40.8176C30.2353 41.5411 30.6173 42.2644 31.3813 42.7168L39.1156 46.9672C39.784 47.3289 40.6435 47.3289 41.4074 46.9672L49.1418 42.7168C49.8102 42.3551 50.2877 41.6315 50.2877 40.8176V32.2262C50.2877 31.5029 49.9057 30.7794 49.1418 30.3271L41.4074 26.0769Z" fill="url(#paint0_linear_7541_697)"/>
<defs>
<linearGradient id="paint0_linear_7541_697" x1="32.0019" y1="16.762" x2="32.0019" y2="47.2385" gradientUnits="userSpaceOnUse">
<stop stop-color="#00A3FF"/>
<stop offset="1" stop-color="#61C3FC"/>
</linearGradient>
</defs>
</svg>
