<svg width="33" height="33" viewBox="0 0 33 33" fill="none" xmlns="http://www.w3.org/2000/svg">
<path d="M16.8608 32.189C25.7276 32.189 32.8608 25.0557 32.8608 16.189C32.8608 7.32225 25.7276 0.188965 16.8608 0.188965C7.99412 0.188965 0.86084 7.32225 0.86084 16.189C0.86084 25.0557 7.99412 32.189 16.8608 32.189Z" fill="#2775CA"/>
<path d="M21.2609 18.7223C21.2609 16.389 19.8609 15.589 17.0609 15.2557C15.0609 14.989 14.6609 14.4557 14.6609 13.5223C14.6609 12.5888 15.3276 11.989 16.6609 11.989C17.8609 11.989 18.5276 12.389 18.8609 13.389C18.9276 13.589 19.1276 13.7223 19.3276 13.7223H20.3942C20.6609 13.7223 20.8609 13.5223 20.8609 13.2557V13.189C20.5942 11.7223 19.3942 10.589 17.8609 10.4557V8.85571C17.8609 8.58899 17.6609 8.38899 17.3276 8.32227H16.3276C16.0609 8.32227 15.8609 8.52227 15.7942 8.85571V10.389C13.7942 10.6557 12.5276 11.989 12.5276 13.6557C12.5276 15.8557 13.8609 16.7223 16.6609 17.0557C18.5276 17.389 19.1276 17.789 19.1276 18.8557C19.1276 19.9224 18.1942 20.6557 16.9276 20.6557C15.1942 20.6557 14.5942 19.9223 14.3942 18.9223C14.3276 18.6557 14.1276 18.5223 13.9276 18.5223H12.7942C12.5276 18.5223 12.3276 18.7223 12.3276 18.989V19.0557C12.5942 20.7223 13.6609 21.9223 15.8609 22.2557V23.8557C15.8609 24.1223 16.0609 24.3223 16.3942 24.389H17.3942C17.6609 24.389 17.8609 24.189 17.9276 23.8557V22.2557C19.9276 21.9223 21.2609 20.5223 21.2609 18.7223Z" fill="white"/>
<path fill-rule="evenodd" clip-rule="evenodd" d="M7.52813 12.922C5.59469 18.0555 8.26141 23.8555 13.4614 25.722C13.6614 25.8555 13.8614 26.122 13.8614 26.322V27.2555C13.8614 27.3887 13.8614 27.4555 13.7947 27.522C13.7281 27.7887 13.4614 27.922 13.1947 27.7887C9.46141 26.5887 6.59469 23.722 5.39469 19.9887C3.39469 13.6555 6.86141 6.92203 13.1947 4.92203C13.2614 4.85547 13.3947 4.85547 13.4614 4.85547C13.7281 4.92203 13.8614 5.12203 13.8614 5.38875V6.32203C13.8614 6.65547 13.7281 6.85547 13.4614 6.98875C10.7281 7.98875 8.52813 10.122 7.52813 12.922ZM19.9283 5.18888C19.9949 4.92216 20.2616 4.78888 20.5283 4.92216C24.1949 6.12216 27.1283 8.98888 28.3283 12.7889C30.3283 19.1222 26.8616 25.8556 20.5283 27.8556C20.4616 27.9222 20.3283 27.9222 20.2616 27.9222C19.9949 27.8556 19.8616 27.6556 19.8616 27.3889V26.4556C19.8616 26.1222 19.9949 25.9222 20.2616 25.7889C22.9949 24.7889 25.1949 22.6556 26.1949 19.8556C28.1283 14.7222 25.4616 8.92216 20.2616 7.0556C20.0616 6.92216 19.8616 6.6556 19.8616 6.38888V5.4556C19.8616 5.32216 19.8616 5.2556 19.9283 5.18888Z" fill="white"/>
</svg>
