<svg width="10" height="17" viewBox="0 0 10 17" fill="none" xmlns="http://www.w3.org/2000/svg">
<path d="M9.26091 10.7223C9.26091 8.38898 7.86091 7.58898 5.06092 7.2557C3.06092 6.98898 2.66092 6.4557 2.66092 5.52226C2.66092 4.58882 3.32764 3.98898 4.66092 3.98898C5.86092 3.98898 6.52764 4.38898 6.86091 5.38898C6.92763 5.58898 7.12764 5.72226 7.32763 5.72226H8.39419C8.66091 5.72226 8.86091 5.52226 8.86091 5.2557V5.18898C8.59419 3.72226 7.39419 2.58898 5.86092 2.4557V0.855705C5.86092 0.588986 5.66092 0.388986 5.32764 0.322266H4.32764C4.06092 0.322266 3.86092 0.522266 3.7942 0.855705V2.38898C1.7942 2.6557 0.527637 3.98898 0.527637 5.6557C0.527637 7.8557 1.86092 8.72226 4.66092 9.0557C6.52763 9.38898 7.12764 9.78898 7.12764 10.8557C7.12764 11.9224 6.1942 12.6557 4.92764 12.6557C3.1942 12.6557 2.5942 11.9223 2.3942 10.9223C2.32764 10.6557 2.12764 10.5223 1.92764 10.5223H0.794197C0.527637 10.5223 0.327637 10.7223 0.327637 10.989V11.0557C0.594197 12.7223 1.66092 13.9223 3.86092 14.2557V15.8557C3.86092 16.1223 4.06092 16.3223 4.3942 16.389H5.3942C5.66091 16.389 5.86092 16.189 5.92764 15.8557V14.2557C7.92763 13.9223 9.26091 12.5223 9.26091 10.7223Z" fill="white"/>
</svg>
