<svg width="64" height="64" viewBox="0 0 64 64" fill="none" xmlns="http://www.w3.org/2000/svg">
<path d="M32 64C49.7334 64 64 49.7334 64 32C64 14.2666 49.7334 0 32 0C14.2666 0 0 14.2666 0 32C0 49.7334 14.2666 64 32 64Z" fill="#2775CA"/>
<path d="M40.8001 37.0665C40.8001 32.4 38.0001 30.8 32.4001 30.1334C28.4001 29.6 27.6001 28.5334 27.6001 26.6666C27.6001 24.7997 28.9336 23.6 31.6001 23.6C34.0001 23.6 35.3336 24.4 36.0001 26.4C36.1336 26.8 36.5336 27.0666 36.9336 27.0666H39.0667C39.6001 27.0666 40.0001 26.6666 40.0001 26.1334V26C39.4667 23.0666 37.0667 20.8 34.0001 20.5334V17.3334C34.0001 16.8 33.6001 16.4 32.9336 16.2666H30.9336C30.4001 16.2666 30.0001 16.6666 29.8667 17.3334V20.4C25.8667 20.9334 23.3336 23.6 23.3336 26.9334C23.3336 31.3334 26.0001 33.0666 31.6001 33.7334C35.3336 34.4 36.5336 35.2 36.5336 37.3334C36.5336 39.4669 34.6667 40.9334 32.1336 40.9334C28.6667 40.9334 27.4667 39.4665 27.0667 37.4665C26.9336 36.9334 26.5336 36.6665 26.1336 36.6665H23.8667C23.3336 36.6665 22.9336 37.0665 22.9336 37.6V37.7334C23.4667 41.0665 25.6001 43.4665 30.0001 44.1334V47.3334C30.0001 47.8665 30.4001 48.2665 31.0667 48.4H33.0667C33.6001 48.4 34.0001 48 34.1336 47.3334V44.1334C38.1336 43.4665 40.8001 40.6665 40.8001 37.0665Z" fill="white"/>
<path fill-rule="evenodd" clip-rule="evenodd" d="M13.3345 25.4661C9.46766 35.733 14.8011 47.333 25.2011 51.0661C25.6011 51.333 26.0011 51.8661 26.0011 52.2661V54.133C26.0011 54.3995 26.0011 54.533 25.8677 54.6661C25.7345 55.1995 25.2011 55.4661 24.6677 55.1995C17.2011 52.7995 11.4677 47.0661 9.06766 39.5995C5.06766 26.933 12.0011 13.4661 24.6677 9.46609C24.8011 9.33297 25.0677 9.33297 25.2011 9.33297C25.7345 9.46609 26.0011 9.86609 26.0011 10.3995V12.2661C26.0011 12.933 25.7345 13.333 25.2011 13.5995C19.7345 15.5995 15.3345 19.8661 13.3345 25.4661ZM38.1349 9.9998C38.268 9.46636 38.8015 9.1998 39.3349 9.46636C46.668 11.8664 52.5349 17.5998 54.9349 25.1998C58.9349 37.8664 52.0014 51.3332 39.3349 55.3332C39.2015 55.4664 38.9349 55.4664 38.8015 55.4664C38.268 55.3332 38.0015 54.9332 38.0015 54.3998V52.5332C38.0015 51.8664 38.268 51.4664 38.8015 51.1998C44.268 49.1998 48.668 44.9332 50.668 39.3332C54.5349 29.0664 49.2015 17.4664 38.8015 13.7332C38.4015 13.4664 38.0015 12.9332 38.0015 12.3998V10.5332C38.0015 10.2664 38.0015 10.1332 38.1349 9.9998Z" fill="white"/>
</svg>
