<svg width="33" height="33" viewBox="0 0 33 33" fill="none" xmlns="http://www.w3.org/2000/svg">
<path d="M32.2637 20.0594C30.1268 28.631 21.4453 33.8474 12.8727 31.7099C4.30379 29.573 -0.91266 20.8909 1.22519 12.3201C3.36117 3.74767 12.0427 -1.46918 20.6126 0.66774C29.1845 2.80466 34.4006 11.4877 32.2635 20.0596L32.2636 20.0594H32.2637Z" fill="#50AF95"/>
<path fill-rule="evenodd" clip-rule="evenodd" d="M18.7711 18.0027C18.658 18.0112 18.0734 18.046 16.7696 18.046C15.7325 18.046 14.9962 18.0149 14.7379 18.0027C10.7301 17.8264 7.73861 17.1287 7.73861 16.2934C7.73861 15.4581 10.7301 14.7614 14.7379 14.5822V17.3078C15 17.3267 15.7504 17.371 16.7875 17.371C18.032 17.371 18.6551 17.3192 18.7673 17.3088V14.5841C22.7666 14.7623 25.7515 15.46 25.7515 16.2934C25.7515 17.1268 22.7676 17.8245 18.7673 18.0017L18.7711 18.0027ZM18.7708 14.3028V11.8638H24.3521V8.14453H9.15627V11.8638H14.7366V14.3019C10.2009 14.5102 6.78987 15.4087 6.78987 16.4854C6.78987 17.562 10.2009 18.4596 14.7366 18.6689V26.4846H18.7699V18.666C23.2952 18.4577 26.7006 17.5601 26.7006 16.4844C26.7006 15.4087 23.2981 14.5112 18.7699 14.3019L18.7708 14.3028Z" fill="white"/>
</svg>
