<svg width="64" height="64" viewBox="0 0 64 64" fill="none" xmlns="http://www.w3.org/2000/svg">
<path d="M63.0354 39.741C58.7616 56.884 41.3985 67.3169 24.2534 63.042C7.11555 58.7681 -3.31735 41.4039 0.958353 24.2623C5.23031 7.11741 22.5934 -3.31628 39.7332 0.957549C56.877 5.23138 67.3092 22.5975 63.035 39.7413L63.0353 39.741H63.0354Z" fill="#50AF95"/>
<path fill-rule="evenodd" clip-rule="evenodd" d="M36.0502 35.6274C35.8239 35.6443 34.6549 35.7141 32.0471 35.7141C29.973 35.7141 28.5003 35.6519 27.9837 35.6274C19.9681 35.2748 13.9852 33.8794 13.9852 32.2088C13.9852 30.5382 19.9681 29.1448 27.9837 28.7865V34.2377C28.5079 34.2754 30.0088 34.364 32.0829 34.364C34.5719 34.364 35.8183 34.2603 36.0426 34.2396V28.7903C44.0412 29.1467 50.011 30.542 50.011 32.2088C50.011 33.8757 44.0431 35.271 36.0426 35.6255L36.0502 35.6274ZM36.0496 28.2277V23.3497H47.2122V15.9111H16.8205V23.3497H27.9812V28.2258C18.9097 28.6425 12.0877 30.4394 12.0877 32.5928C12.0877 34.7461 18.9097 36.5412 27.9812 36.9598V52.5912H36.0477V36.9541C45.0984 36.5374 51.9091 34.7423 51.9091 32.5909C51.9091 30.4394 45.1041 28.6444 36.0477 28.2258L36.0496 28.2277Z" fill="white"/>
</svg>
