<svg width="64" height="64" viewBox="0 0 64 64" fill="none" xmlns="http://www.w3.org/2000/svg">
<g clip-path="url(#clip0_3771_74527)">
<circle cx="32" cy="32" r="32" fill="#EDF0F4"/>
<circle cx="32" cy="32" r="32" fill="white"/>
<path d="M51.9029 13.3741L50.1345 15.141C58.8809 24.6973 58.8809 39.3431 50.1345 48.8994L51.9029 50.6663C61.6339 40.1207 61.6339 23.8785 51.9029 13.3329V13.3741Z" fill="#5A5564"/>
<path d="M15.142 13.8675C24.6982 5.12106 39.3441 5.12106 48.9004 13.8675L50.6672 12.0991C40.1217 2.3681 23.8795 2.3681 13.3339 12.0991L15.142 13.8675Z" fill="#5A5564"/>
<path d="M13.8692 48.8405C5.13347 39.2868 5.13347 24.6534 13.8692 15.0998L12.1007 13.3329C2.36974 23.8785 2.36974 40.1207 12.1007 50.6663L13.8692 48.8405Z" fill="#5A5564"/>
<path d="M48.8592 50.1335C39.3029 58.8799 24.657 58.8799 15.1007 50.1335L13.3339 51.9019C23.8795 61.6329 40.1217 61.6329 50.6672 51.9019L48.8592 50.1335Z" fill="#5A5564"/>
<path fill-rule="evenodd" clip-rule="evenodd" d="M42.9921 26.334C42.6443 22.6626 39.5139 21.4309 35.5544 21.0556V16H32.4935V20.9617H30.0471V16H27.0094V21.0908H20.8007V24.4044C20.8007 24.4044 23.0615 24.3634 23.0268 24.4044C23.8741 24.3101 24.643 24.9117 24.7659 25.7651V39.7001C24.7483 39.9926 24.6145 40.2655 24.3949 40.4567C24.1794 40.6515 23.8946 40.7489 23.6065 40.7264C23.6471 40.7616 21.3804 40.7264 21.3804 40.7264L20.8007 44.4272H26.9514V49.6H30.0123V44.5034H32.4587V49.5766H35.5254V44.4624C40.6965 44.1457 44.3023 42.8554 44.7545 37.9582C45.1197 34.017 43.2878 32.2575 40.3602 31.5479C42.14 30.6623 43.2414 29.0201 42.9921 26.334ZM38.7032 37.3476C38.7032 40.8802 33.2108 40.799 30.7044 40.762C30.4806 40.7587 30.2805 40.7557 30.1104 40.7557V33.9278C30.3229 33.9284 30.5821 33.9226 30.876 33.916H30.876C33.4525 33.8584 38.7032 33.741 38.7032 37.3476ZM30.6368 30.8282C32.7371 30.8659 37.2821 30.9476 37.2821 27.7302C37.2821 24.4314 32.8788 24.5472 30.7376 24.6036C30.4991 24.6099 30.2887 24.6154 30.1156 24.6154V30.8215C30.2639 30.8215 30.4396 30.8247 30.6368 30.8282Z" fill="#F09242"/>
<path fill-rule="evenodd" clip-rule="evenodd" d="M6.08843e-08 31.998C-0.0010783 49.6696 14.3226 63.9968 31.9941 64C40.4831 64.0016 48.6248 60.63 54.6274 54.6274C60.63 48.6248 64.0016 40.4831 64 31.9941C63.9968 14.3226 49.6696 -0.0010783 31.998 6.08843e-08C14.3265 0.00107842 0.00107842 14.3265 6.08843e-08 31.998ZM2.53126 31.9952C2.5248 15.7145 15.7142 2.50937 31.9949 2.49643C39.8215 2.49021 47.3294 5.59574 52.8648 11.1289C58.4001 16.662 61.5086 24.1687 61.5055 31.9953C61.499 48.276 48.2991 61.4706 32.0184 61.4706C15.7377 61.4706 2.53773 48.2759 2.53126 31.9952Z" fill="#282138"/>
</g>
<defs>
<clipPath id="clip0_3771_74527">
<rect width="64" height="64" fill="white"/>
</clipPath>
</defs>
</svg>
