<svg width="64" height="64" viewBox="0 0 64 64" fill="none" xmlns="http://www.w3.org/2000/svg">
<path d="M64 32C64 14.3269 49.6731 0 32 0C14.3269 0 0 14.3269 0 32C0 49.6731 14.3269 64 32 64C49.6731 64 64 49.6731 64 32Z" fill="#00A3FF"/>
<path d="M18.8076 29.8L18.4633 30.3077C14.5045 36.4001 15.3651 44.3539 20.7009 49.4308C23.627 52.477 27.7579 54.0001 31.8889 54.0001C31.8889 54.0001 31.8889 54.0001 18.8076 29.8Z" fill="white"/>
<path opacity="0.6" d="M31.8889 37.077L18.8076 29.6309C31.8889 54.0001 31.8889 54.0001 31.8889 54.0001C31.8889 48.7539 31.8889 42.6616 31.8889 37.077Z" fill="white"/>
<path opacity="0.6" d="M44.9705 29.8L45.3147 30.3077C49.2736 36.4001 48.4129 44.3539 43.0771 49.4308C39.9789 52.477 36.0201 54.0001 31.8892 54.0001C31.8892 54.0001 31.8892 54.0001 44.9705 29.8Z" fill="white"/>
<path opacity="0.2" d="M31.8892 37.077L44.9705 29.6309C31.8892 54.0001 31.8892 54.0001 31.8892 54.0001C31.8892 48.7539 31.8892 42.6616 31.8892 37.077Z" fill="white"/>
<path opacity="0.2" d="M31.8892 20.6619V33.3542L43.2493 27.0926L31.8892 20.6619Z" fill="white"/>
<path opacity="0.6" d="M31.8889 20.6619L20.5288 27.0926L31.8889 33.3542V20.6619Z" fill="white"/>
<path d="M31.8889 10.0002L20.5288 27.0926L31.8889 20.6618V10.0002Z" fill="white"/>
<path opacity="0.6" d="M31.8892 20.6618L43.2493 27.0926L31.8892 10.0002V20.6618Z" fill="white"/>
</svg>
