<svg width="16" height="14" viewBox="0 0 16 14" fill="none" xmlns="http://www.w3.org/2000/svg">
<path d="M14.3707 3.47913C14.3707 3.63 14.3799 3.78285 14.3799 3.93768C14.3799 8.61053 11.0771 14 5.03536 14C3.24994 14.0039 1.50146 13.4524 0 12.4119C0.259898 12.4462 0.521485 12.4634 0.78332 12.4635C2.26221 12.466 3.69886 11.9325 4.86211 10.9489C4.17658 10.9366 3.51176 10.6938 2.96057 10.2546C2.40938 9.81545 1.99936 9.20178 1.78781 8.49936C1.99112 8.54287 2.19798 8.56416 2.40525 8.56288C2.6972 8.56358 2.98792 8.52219 3.26967 8.43981C2.52612 8.27844 1.85734 7.84487 1.3769 7.21273C0.896462 6.58058 0.633981 5.78882 0.634029 4.9719C0.632275 4.95674 0.632275 4.94141 0.634029 4.92625C1.08957 5.20044 1.59979 5.35229 2.12141 5.36892C1.42268 4.86938 0.927712 4.10102 0.73788 3.22121C0.548048 2.3414 0.677719 1.41671 1.10033 0.63652C1.92565 1.72996 2.95548 2.62401 4.1228 3.26049C5.29012 3.89697 6.56878 4.26162 7.87559 4.33073C7.81914 4.07043 7.79069 3.804 7.79081 3.5367C7.79131 2.82762 7.98954 2.13505 8.35983 1.54874C8.73011 0.96244 9.25537 0.509441 9.86753 0.248457C10.4797 -0.0125267 11.1505 -0.0694624 11.7931 0.0850304C12.4356 0.239523 13.0203 0.598321 13.4713 1.11492C14.208 0.960897 14.9145 0.670771 15.5595 0.257372C15.3144 1.07708 14.8008 1.77276 14.1145 2.21465C14.7653 2.1334 15.401 1.94668 16 1.66081C15.5605 2.36547 15.0089 2.98103 14.3707 3.47913Z" fill="url(#paint0_linear)"/>
<defs>
<linearGradient id="paint0_linear" x1="0" y1="0" x2="16.6053" y2="0.759099" gradientUnits="userSpaceOnUse">
<stop stop-color="#FE3477"/>
<stop offset="1" stop-color="#F0014F"/>
</linearGradient>
</defs>
</svg>
