<svg width="667" height="28" viewBox="0 0 667 28" fill="none" xmlns="http://www.w3.org/2000/svg">
<path d="M0.333333 3C0.333333 4.47276 1.52724 5.66667 3 5.66667C4.47276 5.66667 5.66667 4.47276 5.66667 3C5.66667 1.52724 4.47276 0.333333 3 0.333333C1.52724 0.333333 0.333333 1.52724 0.333333 3ZM663.354 2.64698C663.158 2.45172 662.842 2.45172 662.646 2.64698L659.464 5.82896C659.269 6.02423 659.269 6.34081 659.464 6.53607C659.66 6.73133 659.976 6.73133 660.172 6.53607L663 3.70764L665.828 6.53607C666.024 6.73133 666.34 6.73133 666.536 6.53607C666.731 6.34081 666.731 6.02423 666.536 5.82896L663.354 2.64698ZM663 26.9998L663 27.4998L663.5 27.4998L663.5 26.9998L663 26.9998ZM3 26.9999L2.5 26.9999L2.5 27.4999L3 27.4999L3 26.9999ZM2.5 3L2.5 4L3.5 4L3.5 3L2.5 3ZM2.5 5.99999L2.5 7.99999L3.5 7.99999L3.5 5.99999L2.5 5.99999ZM2.5 9.99998L2.5 12L3.5 12L3.5 9.99998L2.5 9.99998ZM2.5 14L2.5 16L3.5 16L3.5 14L2.5 14ZM2.5 18L2.5 20L3.5 20L3.5 18L2.5 18ZM2.5 22L2.5 23.9999L3.5 23.9999L3.5 22L2.5 22ZM2.5 25.9999L2.5 26.9999L3.5 26.9999L3.5 25.9999L2.5 25.9999ZM3 27.4999L4 27.4999L4 26.4999L3 26.4999L3 27.4999ZM6 27.4999L8 27.4999L8 26.4999L6 26.4999L6 27.4999ZM10 27.4999L12 27.4999L12 26.4999L10 26.4999L10 27.4999ZM14 27.4999L16 27.4999L16 26.4999L14 26.4999L14 27.4999ZM18 27.4999L20 27.4999L20 26.4999L18 26.4999L18 27.4999ZM22 27.4999L24 27.4999L24 26.4999L22 26.4999L22 27.4999ZM26 27.4999L28 27.4999L28 26.4999L26 26.4999L26 27.4999ZM30 27.4999L32 27.4999L32 26.4999L30 26.4999L30 27.4999ZM34 27.4999L36 27.4999L36 26.4999L34 26.4999L34 27.4999ZM38 27.4999L40 27.4999L40 26.4999L38 26.4999L38 27.4999ZM42 27.4999L44 27.4999L44 26.4999L42 26.4999L42 27.4999ZM46 27.4999L48 27.4999L48 26.4999L46 26.4999L46 27.4999ZM50 27.4999L52 27.4999L52 26.4999L50 26.4999L50 27.4999ZM54 27.4999L56 27.4999L56 26.4999L54 26.4999L54 27.4999ZM58 27.4999L60 27.4999L60 26.4999L58 26.4999L58 27.4999ZM62 27.4999L64 27.4999L64 26.4999L62 26.4999L62 27.4999ZM66 27.4999L68 27.4999L68 26.4999L66 26.4999L66 27.4999ZM70 27.4999L72 27.4999L72 26.4999L70 26.4999L70 27.4999ZM74 27.4999L76 27.4999L76 26.4999L74 26.4999L74 27.4999ZM78 27.4999L80 27.4999L80 26.4999L78 26.4999L78 27.4999ZM82 27.4999L84 27.4999L84 26.4999L82 26.4999L82 27.4999ZM86 27.4999L88 27.4999L88 26.4999L86 26.4999L86 27.4999ZM90 27.4999L92 27.4999L92 26.4999L90 26.4999L90 27.4999ZM94 27.4999L96 27.4999L96 26.4999L94 26.4999L94 27.4999ZM98 27.4999L100 27.4999L100 26.4999L98 26.4999L98 27.4999ZM102 27.4999L104 27.4999L104 26.4999L102 26.4999L102 27.4999ZM106 27.4999L108 27.4999L108 26.4999L106 26.4999L106 27.4999ZM110 27.4999L112 27.4999L112 26.4999L110 26.4999L110 27.4999ZM114 27.4999L116 27.4999L116 26.4999L114 26.4999L114 27.4999ZM118 27.4999L120 27.4999L120 26.4999L118 26.4999L118 27.4999ZM122 27.4999L124 27.4999L124 26.4999L122 26.4999L122 27.4999ZM126 27.4999L128 27.4999L128 26.4999L126 26.4999L126 27.4999ZM130 27.4999L132 27.4999L132 26.4999L130 26.4999L130 27.4999ZM134 27.4999L136 27.4999L136 26.4999L134 26.4999L134 27.4999ZM138 27.4999L140 27.4999L140 26.4999L138 26.4999L138 27.4999ZM142 27.4999L144 27.4999L144 26.4999L142 26.4999L142 27.4999ZM146 27.4999L148 27.4999L148 26.4999L146 26.4999L146 27.4999ZM150 27.4999L152 27.4999L152 26.4999L150 26.4999L150 27.4999ZM154 27.4999L156 27.4999L156 26.4999L154 26.4999L154 27.4999ZM158 27.4999L160 27.4999L160 26.4999L158 26.4999L158 27.4999ZM162 27.4999L164 27.4999L164 26.4999L162 26.4999L162 27.4999ZM166 27.4999L168 27.4999L168 26.4999L166 26.4999L166 27.4999ZM170 27.4999L172 27.4999L172 26.4999L170 26.4999L170 27.4999ZM174 27.4999L176 27.4999L176 26.4999L174 26.4999L174 27.4999ZM178 27.4999L180 27.4999L180 26.4999L178 26.4999L178 27.4999ZM182 27.4999L184 27.4999L184 26.4999L182 26.4999L182 27.4999ZM186 27.4999L188 27.4999L188 26.4999L186 26.4999L186 27.4999ZM190 27.4999L192 27.4999L192 26.4999L190 26.4999L190 27.4999ZM194 27.4999L196 27.4999L196 26.4999L194 26.4999L194 27.4999ZM198 27.4999L200 27.4999L200 26.4999L198 26.4999L198 27.4999ZM202 27.4999L204 27.4999L204 26.4999L202 26.4999L202 27.4999ZM206 27.4999L208 27.4999L208 26.4999L206 26.4999L206 27.4999ZM210 27.4999L212 27.4999L212 26.4999L210 26.4999L210 27.4999ZM214 27.4999L216 27.4999L216 26.4999L214 26.4999L214 27.4999ZM218 27.4999L220 27.4999L220 26.4999L218 26.4999L218 27.4999ZM222 27.4999L224 27.4999L224 26.4999L222 26.4999L222 27.4999ZM226 27.4999L228 27.4999L228 26.4999L226 26.4999L226 27.4999ZM230 27.4999L232 27.4999L232 26.4999L230 26.4999L230 27.4999ZM234 27.4999L236 27.4999L236 26.4999L234 26.4999L234 27.4999ZM238 27.4999L240 27.4999L240 26.4999L238 26.4999L238 27.4999ZM242 27.4999L244 27.4999L244 26.4999L242 26.4999L242 27.4999ZM246 27.4999L248 27.4999L248 26.4999L246 26.4999L246 27.4999ZM250 27.4999L252 27.4999L252 26.4999L250 26.4999L250 27.4999ZM254 27.4999L256 27.4999L256 26.4999L254 26.4999L254 27.4999ZM258 27.4999L260 27.4999L260 26.4999L258 26.4999L258 27.4999ZM262 27.4999L264 27.4999L264 26.4999L262 26.4999L262 27.4999ZM266 27.4999L268 27.4999L268 26.4999L266 26.4999L266 27.4999ZM270 27.4999L272 27.4999L272 26.4999L270 26.4999L270 27.4999ZM274 27.4999L276 27.4999L276 26.4999L274 26.4999L274 27.4999ZM278 27.4999L280 27.4999L280 26.4999L278 26.4999L278 27.4999ZM282 27.4999L284 27.4999L284 26.4999L282 26.4999L282 27.4999ZM286 27.4999L288 27.4999L288 26.4999L286 26.4999L286 27.4999ZM290 27.4999L292 27.4999L292 26.4999L290 26.4999L290 27.4999ZM294 27.4999L296 27.4999L296 26.4999L294 26.4999L294 27.4999ZM298 27.4999L300 27.4999L300 26.4999L298 26.4999L298 27.4999ZM302 27.4999L304 27.4999L304 26.4999L302 26.4999L302 27.4999ZM306 27.4999L308 27.4999L308 26.4999L306 26.4999L306 27.4999ZM310 27.4999L312 27.4999L312 26.4999L310 26.4999L310 27.4999ZM314 27.4999L316 27.4999L316 26.4999L314 26.4999L314 27.4999ZM318 27.4999L320 27.4999L320 26.4999L318 26.4999L318 27.4999ZM322 27.4999L324 27.4999L324 26.4999L322 26.4999L322 27.4999ZM326 27.4999L328 27.4999L328 26.4999L326 26.4999L326 27.4999ZM330 27.4999L332 27.4999L332 26.4999L330 26.4999L330 27.4999ZM334 27.4999L336 27.4999L336 26.4999L334 26.4999L334 27.4999ZM338 27.4999L340 27.4999L340 26.4999L338 26.4999L338 27.4999ZM342 27.4999L344 27.4999L344 26.4999L342 26.4999L342 27.4999ZM346 27.4999L348 27.4999L348 26.4999L346 26.4999L346 27.4999ZM350 27.4999L352 27.4999L352 26.4999L350 26.4999L350 27.4999ZM354 27.4999L356 27.4999L356 26.4999L354 26.4999L354 27.4999ZM358 27.4999L360 27.4999L360 26.4999L358 26.4999L358 27.4999ZM362 27.4999L364 27.4999L364 26.4999L362 26.4999L362 27.4999ZM366 27.4999L368 27.4999L368 26.4999L366 26.4999L366 27.4999ZM370 27.4999L372 27.4999L372 26.4999L370 26.4999L370 27.4999ZM374 27.4999L376 27.4999L376 26.4999L374 26.4999L374 27.4999ZM378 27.4999L380 27.4999L380 26.4999L378 26.4999L378 27.4999ZM382 27.4999L384 27.4999L384 26.4999L382 26.4999L382 27.4999ZM386 27.4999L388 27.4999L388 26.4999L386 26.4999L386 27.4999ZM390 27.4999L392 27.4999L392 26.4999L390 26.4999L390 27.4999ZM394 27.4999L396 27.4999L396 26.4999L394 26.4999L394 27.4999ZM398 27.4999L400 27.4999L400 26.4999L398 26.4999L398 27.4999ZM402 27.4999L404 27.4999L404 26.4999L402 26.4999L402 27.4999ZM406 27.4999L408 27.4999L408 26.4999L406 26.4999L406 27.4999ZM410 27.4999L412 27.4999L412 26.4999L410 26.4999L410 27.4999ZM414 27.4999L416 27.4999L416 26.4999L414 26.4999L414 27.4999ZM418 27.4999L420 27.4999L420 26.4999L418 26.4999L418 27.4999ZM422 27.4999L424 27.4999L424 26.4999L422 26.4999L422 27.4999ZM426 27.4999L428 27.4999L428 26.4999L426 26.4999L426 27.4999ZM430 27.4999L432 27.4999L432 26.4999L430 26.4999L430 27.4999ZM434 27.4999L436 27.4999L436 26.4999L434 26.4999L434 27.4999ZM438 27.4999L440 27.4999L440 26.4999L438 26.4999L438 27.4999ZM442 27.4999L444 27.4999L444 26.4999L442 26.4999L442 27.4999ZM446 27.4999L448 27.4999L448 26.4999L446 26.4999L446 27.4999ZM450 27.4999L452 27.4999L452 26.4999L450 26.4999L450 27.4999ZM454 27.4999L456 27.4999L456 26.4999L454 26.4999L454 27.4999ZM458 27.4999L460 27.4999L460 26.4999L458 26.4999L458 27.4999ZM462 27.4999L464 27.4999L464 26.4999L462 26.4999L462 27.4999ZM466 27.4999L468 27.4999L468 26.4999L466 26.4999L466 27.4999ZM470 27.4999L472 27.4999L472 26.4999L470 26.4999L470 27.4999ZM474 27.4999L476 27.4999L476 26.4999L474 26.4999L474 27.4999ZM478 27.4999L480 27.4999L480 26.4999L478 26.4999L478 27.4999ZM482 27.4999L484 27.4999L484 26.4999L482 26.4999L482 27.4999ZM486 27.4999L488 27.4999L488 26.4999L486 26.4999L486 27.4999ZM490 27.4999L492 27.4999L492 26.4999L490 26.4999L490 27.4999ZM494 27.4999L496 27.4999L496 26.4999L494 26.4999L494 27.4999ZM498 27.4998L500 27.4998L500 26.4998L498 26.4998L498 27.4998ZM502 27.4998L504 27.4998L504 26.4998L502 26.4998L502 27.4998ZM506 27.4998L508 27.4998L508 26.4998L506 26.4998L506 27.4998ZM510 27.4998L512 27.4998L512 26.4998L510 26.4998L510 27.4998ZM514 27.4998L516 27.4998L516 26.4998L514 26.4998L514 27.4998ZM518 27.4998L520 27.4998L520 26.4998L518 26.4998L518 27.4998ZM522 27.4998L524 27.4998L524 26.4998L522 26.4998L522 27.4998ZM526 27.4998L528 27.4998L528 26.4998L526 26.4998L526 27.4998ZM530 27.4998L532 27.4998L532 26.4998L530 26.4998L530 27.4998ZM534 27.4998L536 27.4998L536 26.4998L534 26.4998L534 27.4998ZM538 27.4998L540 27.4998L540 26.4998L538 26.4998L538 27.4998ZM542 27.4998L544 27.4998L544 26.4998L542 26.4998L542 27.4998ZM546 27.4998L548 27.4998L548 26.4998L546 26.4998L546 27.4998ZM550 27.4998L552 27.4998L552 26.4998L550 26.4998L550 27.4998ZM554 27.4998L556 27.4998L556 26.4998L554 26.4998L554 27.4998ZM558 27.4998L560 27.4998L560 26.4998L558 26.4998L558 27.4998ZM562 27.4998L564 27.4998L564 26.4998L562 26.4998L562 27.4998ZM566 27.4998L568 27.4998L568 26.4998L566 26.4998L566 27.4998ZM570 27.4998L572 27.4998L572 26.4998L570 26.4998L570 27.4998ZM574 27.4998L576 27.4998L576 26.4998L574 26.4998L574 27.4998ZM578 27.4998L580 27.4998L580 26.4998L578 26.4998L578 27.4998ZM582 27.4998L584 27.4998L584 26.4998L582 26.4998L582 27.4998ZM586 27.4998L588 27.4998L588 26.4998L586 26.4998L586 27.4998ZM590 27.4998L592 27.4998L592 26.4998L590 26.4998L590 27.4998ZM594 27.4998L596 27.4998L596 26.4998L594 26.4998L594 27.4998ZM598 27.4998L600 27.4998L600 26.4998L598 26.4998L598 27.4998ZM602 27.4998L604 27.4998L604 26.4998L602 26.4998L602 27.4998ZM606 27.4998L608 27.4998L608 26.4998L606 26.4998L606 27.4998ZM610 27.4998L612 27.4998L612 26.4998L610 26.4998L610 27.4998ZM614 27.4998L616 27.4998L616 26.4998L614 26.4998L614 27.4998ZM618 27.4998L620 27.4998L620 26.4998L618 26.4998L618 27.4998ZM622 27.4998L624 27.4998L624 26.4998L622 26.4998L622 27.4998ZM626 27.4998L628 27.4998L628 26.4998L626 26.4998L626 27.4998ZM630 27.4998L632 27.4998L632 26.4998L630 26.4998L630 27.4998ZM634 27.4998L636 27.4998L636 26.4998L634 26.4998L634 27.4998ZM638 27.4998L640 27.4998L640 26.4998L638 26.4998L638 27.4998ZM642 27.4998L644 27.4998L644 26.4998L642 26.4998L642 27.4998ZM646 27.4998L648 27.4998L648 26.4998L646 26.4998L646 27.4998ZM650 27.4998L652 27.4998L652 26.4998L650 26.4998L650 27.4998ZM654 27.4998L656 27.4998L656 26.4998L654 26.4998L654 27.4998ZM658 27.4998L660 27.4998L660 26.4998L658 26.4998L658 27.4998ZM662 27.4998L663 27.4998L663 26.4998L662 26.4998L662 27.4998ZM663.5 26.9998L663.5 25.9998L662.5 25.9998L662.5 26.9998L663.5 26.9998ZM663.5 23.9999L663.5 22L662.5 22L662.5 23.9999L663.5 23.9999ZM663.5 20L663.5 18.0001L662.5 18.0001L662.5 20L663.5 20ZM663.5 16.0001L663.5 14.0002L662.5 14.0002L662.5 16.0001L663.5 16.0001ZM663.5 12.0003L663.5 10.0003L662.5 10.0003L662.5 12.0003L663.5 12.0003ZM663.5 8.00039L663.5 6.00045L662.5 6.00045L662.5 8.00039L663.5 8.00039ZM663.5 4.00051L663.5 3.00054L662.5 3.00054L662.5 4.00051L663.5 4.00051Z" fill="#787883"/>
</svg>
