<svg width="396" height="8" viewBox="0 0 396 8" fill="none" xmlns="http://www.w3.org/2000/svg">
<path d="M0.333333 4C0.333333 5.47276 1.52724 6.66667 3 6.66667C4.47276 6.66667 5.66667 5.47276 5.66667 4C5.66667 2.52724 4.47276 1.33333 3 1.33333C1.52724 1.33333 0.333333 2.52724 0.333333 4ZM395.354 4.35355C395.549 4.15829 395.549 3.84171 395.354 3.64645L392.172 0.464466C391.976 0.269204 391.66 0.269204 391.464 0.464466C391.269 0.659728 391.269 0.976311 391.464 1.17157L394.293 4L391.464 6.82843C391.269 7.02369 391.269 7.34027 391.464 7.53553C391.66 7.7308 391.976 7.7308 392.172 7.53553L395.354 4.35355ZM3 4.5H4V3.5H3V4.5ZM6 4.5H8V3.5H6V4.5ZM10 4.5H12V3.5H10V4.5ZM14 4.5H16V3.5H14V4.5ZM18 4.5H20V3.5H18V4.5ZM22 4.5H24V3.5H22V4.5ZM26 4.5H28V3.5H26V4.5ZM30 4.5H32V3.5H30V4.5ZM34 4.5H36V3.5H34V4.5ZM38 4.5H40V3.5H38V4.5ZM42 4.5H44V3.5H42V4.5ZM46 4.5H48V3.5H46V4.5ZM50 4.5H52V3.5H50V4.5ZM54 4.5H56V3.5H54V4.5ZM58 4.5H60V3.5H58V4.5ZM62 4.5H64V3.5H62V4.5ZM66 4.5H68V3.5H66V4.5ZM70 4.5H72V3.5H70V4.5ZM74 4.5H76V3.5H74V4.5ZM78 4.5H80V3.5H78V4.5ZM82 4.5H84V3.5H82V4.5ZM86 4.5H88V3.5H86V4.5ZM90 4.5H92V3.5H90V4.5ZM94 4.5H96V3.5H94V4.5ZM98 4.5H100V3.5H98V4.5ZM102 4.5H104V3.5H102V4.5ZM106 4.5H108V3.5H106V4.5ZM110 4.5H112V3.5H110V4.5ZM114 4.5H116V3.5H114V4.5ZM118 4.5H120V3.5H118V4.5ZM122 4.5H124V3.5H122V4.5ZM126 4.5H128V3.5H126V4.5ZM130 4.5H132V3.5H130V4.5ZM134 4.5H136V3.5H134V4.5ZM138 4.5H140V3.5H138V4.5ZM142 4.5H144V3.5H142V4.5ZM146 4.5H148V3.5H146V4.5ZM150 4.5H152V3.5H150V4.5ZM154 4.5H156V3.5H154V4.5ZM158 4.5H160V3.5H158V4.5ZM162 4.5H164V3.5H162V4.5ZM166 4.5H168V3.5H166V4.5ZM170 4.5H172V3.5H170V4.5ZM174 4.5H176V3.5H174V4.5ZM178 4.5H180V3.5H178V4.5ZM182 4.5H184V3.5H182V4.5ZM186 4.5H188V3.5H186V4.5ZM190 4.5H192V3.5H190V4.5ZM194 4.5H196V3.5H194V4.5ZM198 4.5H200V3.5H198V4.5ZM202 4.5H204V3.5H202V4.5ZM206 4.5H208V3.5H206V4.5ZM210 4.5H212V3.5H210V4.5ZM214 4.5H216V3.5H214V4.5ZM218 4.5H220V3.5H218V4.5ZM222 4.5H224V3.5H222V4.5ZM226 4.5H228V3.5H226V4.5ZM230 4.5H232V3.5H230V4.5ZM234 4.5H236V3.5H234V4.5ZM238 4.5H240V3.5H238V4.5ZM242 4.5H244V3.5H242V4.5ZM246 4.5H248V3.5H246V4.5ZM250 4.5H252V3.5H250V4.5ZM254 4.5H256V3.5H254V4.5ZM258 4.5H260V3.5H258V4.5ZM262 4.5H264V3.5H262V4.5ZM266 4.5H268V3.5H266V4.5ZM270 4.5H272V3.5H270V4.5ZM274 4.5H276V3.5H274V4.5ZM278 4.5H280V3.5H278V4.5ZM282 4.5H284V3.5H282V4.5ZM286 4.5H288V3.5H286V4.5ZM290 4.5H292V3.5H290V4.5ZM294 4.5H296V3.5H294V4.5ZM298 4.5H300V3.5H298V4.5ZM302 4.5H304V3.5H302V4.5ZM306 4.5H308V3.5H306V4.5ZM310 4.5H312V3.5H310V4.5ZM314 4.5H316V3.5H314V4.5ZM318 4.5H320V3.5H318V4.5ZM322 4.5H324V3.5H322V4.5ZM326 4.5H328V3.5H326V4.5ZM330 4.5H332V3.5H330V4.5ZM334 4.5H336V3.5H334V4.5ZM338 4.5H340V3.5H338V4.5ZM342 4.5H344V3.5H342V4.5ZM346 4.5H348V3.5H346V4.5ZM350 4.5H352V3.5H350V4.5ZM354 4.5H356V3.5H354V4.5ZM358 4.5H360V3.5H358V4.5ZM362 4.5H364V3.5H362V4.5ZM366 4.5H368V3.5H366V4.5ZM370 4.5H372V3.5H370V4.5ZM374 4.5H376V3.5H374V4.5ZM378 4.5H380V3.5H378V4.5ZM382 4.5H384V3.5H382V4.5ZM386 4.5H388V3.5H386V4.5ZM390 4.5H392V3.5H390V4.5ZM394 4.5H395V3.5H394V4.5Z" fill="#787883"/>
</svg>
