<svg width="16" height="16" viewBox="0 0 16 16" fill="none" xmlns="http://www.w3.org/2000/svg">
<path d="M7.33337 1.36621C3.96449 1.70069 1.33337 4.54306 1.33337 7.99996C1.33337 11.6819 4.31814 14.6666 8.00004 14.6666C11.6819 14.6666 14.6667 11.6819 14.6667 7.99996C14.6667 4.54306 12.0356 1.70069 8.66671 1.36621V8.39049L10.1953 6.86189C10.4557 6.60154 10.8778 6.60154 11.1381 6.86189C11.3985 7.12224 11.3985 7.54435 11.1381 7.8047L8.47145 10.4714C8.2111 10.7317 7.78899 10.7317 7.52864 10.4714L4.86197 7.8047C4.60162 7.54435 4.60162 7.12224 4.86197 6.86189C5.12232 6.60154 5.54443 6.60154 5.80478 6.86189L7.33337 8.39049V1.36621Z" fill="#E2E8F0"/>
</svg>
