<svg width="16" height="16" viewBox="0 0 16 16" fill="none" xmlns="http://www.w3.org/2000/svg">
<g clip-path="url(#clip0_7033_104695)">
<path d="M12.9418 3.51759C10.294 0.960563 6.07456 1.03421 3.51754 3.68209C0.960517 6.32996 1.03417 10.5494 3.68204 13.1064C4.8333 14.2181 6.28163 14.8326 7.76125 14.9544L7.64043 8.04724L6.13906 9.60195C5.88336 9.86673 5.46142 9.8741 5.19663 9.6184C4.93184 9.3627 4.92448 8.94076 5.18018 8.67597L7.79925 5.96384C8.05495 5.69906 8.47689 5.69169 8.74168 5.9474L11.4538 8.56646C11.7186 8.82216 11.726 9.2441 11.4703 9.50889C11.2145 9.77368 10.7926 9.78104 10.5278 9.52534L8.97323 8.02409L9.09404 14.9311C10.5685 14.7578 11.9946 14.0932 13.1063 12.9419C15.6634 10.294 15.5897 6.07461 12.9418 3.51759Z" fill="#E2E8F0"/>
</g>
<defs>
<clipPath id="clip0_7033_104695">
<rect width="16" height="16" fill="white"/>
</clipPath>
</defs>
</svg>
