<svg width="16" height="16" viewBox="0 0 16 16" fill="none" xmlns="http://www.w3.org/2000/svg">
<path fill-rule="evenodd" clip-rule="evenodd" d="M4.5026 3.12429C5.48703 2.41705 6.69503 2 8 2C11.3137 2 14 4.68629 14 8C14 11.3137 11.3137 14 8 14C4.68629 14 2 11.3137 2 8C2 7.63181 2.29848 7.33333 2.66667 7.33333C3.03486 7.33333 3.33333 7.63181 3.33333 8C3.33333 10.5773 5.42267 12.6667 8 12.6667C10.5773 12.6667 12.6667 10.5773 12.6667 8C12.6667 5.42267 10.5773 3.33333 8 3.33333C7.11823 3.33333 6.29383 3.57756 5.59036 4.0026H5.83594C6.20413 4.0026 6.5026 4.30108 6.5026 4.66927C6.5026 5.03746 6.20413 5.33594 5.83594 5.33594H3.83594C3.46775 5.33594 3.16927 5.03746 3.16927 4.66927V2.66927C3.16927 2.30108 3.46775 2.0026 3.83594 2.0026C4.20413 2.0026 4.5026 2.30108 4.5026 2.66927V3.12429ZM8 4.66667C8.36819 4.66667 8.66667 4.96514 8.66667 5.33333V7.72386L10.1381 9.19526C10.3984 9.45561 10.3984 9.87772 10.1381 10.1381C9.87772 10.3984 9.45561 10.3984 9.19526 10.1381L7.5286 8.4714C7.40357 8.34638 7.33333 8.17681 7.33333 8V5.33333C7.33333 4.96514 7.63181 4.66667 8 4.66667Z" fill="#E2E8F0"/>
</svg>
