<svg width="240" height="80" viewBox="0 0 240 80" fill="none" xmlns="http://www.w3.org/2000/svg">
<rect x="102.395" y="20.4148" width="11.4819" height="10.7399" rx="1.36585" fill="#FC0A54" stroke="#FC0A54" stroke-width="0.390244"/>
<rect x="125.026" y="20.4148" width="11.4819" height="10.7399" rx="1.36585" fill="#FC0A54" stroke="#FC0A54" stroke-width="0.390244"/>
<rect x="130.962" y="49.7244" width="11.4819" height="10.7399" rx="1.36585" fill="#FC0A54" stroke="#FC0A54" stroke-width="0.390244"/>
<rect x="96.4589" y="49.7244" width="11.4819" height="10.7399" rx="1.36585" fill="#FC0A54" stroke="#FC0A54" stroke-width="0.390244"/>
<rect x="104.621" y="41.7479" width="29.8467" height="10.7399" rx="1.36585" fill="#FC0A54" stroke="#FC0A54" stroke-width="0.390244"/>
<mask id="path-6-inside-1_5621_90373" fill="white">
<rect x="72.5275" y="0.439453" width="94.9451" height="79.5604" rx="3.12195"/>
</mask>
<rect x="72.5275" y="0.439453" width="94.9451" height="79.5604" rx="3.12195" stroke="#FC0A54" stroke-width="23.4146" mask="url(#path-6-inside-1_5621_90373)"/>
<rect x="1.07424" y="0.195122" width="15.8735" height="38.2911" rx="2.92683" fill="#FC0A54" stroke="#FC0A54" stroke-width="0.390244"/>
<rect x="38.8765" y="1.51397" width="15.8735" height="76.5328" rx="2.92683" fill="#FC0A54" stroke="#FC0A54" stroke-width="0.390244"/>
<rect x="9.42591" y="45.0798" width="15.8735" height="38.2911" rx="2.92683" transform="rotate(-90 9.42591 45.0798)" fill="#FC0A54" stroke="#FC0A54" stroke-width="0.390244"/>
<rect x="185.25" y="0.195122" width="15.8735" height="38.2911" rx="2.92683" fill="#FC0A54" stroke="#FC0A54" stroke-width="0.390244"/>
<rect x="223.052" y="1.51397" width="15.8735" height="76.5328" rx="2.92683" fill="#FC0A54" stroke="#FC0A54" stroke-width="0.390244"/>
<rect x="193.602" y="45.0798" width="15.8735" height="38.2911" rx="2.92683" transform="rotate(-90 193.602 45.0798)" fill="#FC0A54" stroke="#FC0A54" stroke-width="0.390244"/>
</svg>
