<svg width="24" height="24" viewBox="0 0 24 24" fill="none" xmlns="http://www.w3.org/2000/svg">
<path d="M5.28561 18.7144C5.46834 18.8971 5.71611 19 5.9746 19C6.23307 19 6.481 18.8971 6.66359 18.7144L12.0001 13.3778L17.3367 18.7144C17.5828 18.9604 17.9416 19.0566 18.2778 18.9665C18.6141 18.8764 18.8766 18.6138 18.9668 18.2776C19.0568 17.9413 18.9607 17.5825 18.7146 17.3364L13.3781 11.9999L18.7146 6.66331C18.9607 6.41723 19.0568 6.0584 18.9668 5.72216C18.8766 5.38591 18.6141 5.12338 18.2778 5.03317C17.9416 4.94317 17.5828 5.03929 17.3367 5.28536L12.0001 10.6219L6.66359 5.28536C6.41751 5.03929 6.05868 4.94317 5.72245 5.03317C5.38619 5.12335 5.12366 5.3859 5.03345 5.72216C4.94345 6.05842 5.03957 6.41724 5.28564 6.66331L10.6222 11.9999L5.28564 17.3364C5.10291 17.519 5 17.7669 5 18.0254C5 18.2839 5.10291 18.5317 5.28564 18.7144L5.28561 18.7144Z" fill="#F8FAFC"/>
</svg>
