<svg width="24" height="24" viewBox="0 0 24 24" fill="none" xmlns="http://www.w3.org/2000/svg">
<path fill-rule="evenodd" clip-rule="evenodd" d="M12 3.81818C7.48131 3.81818 3.81818 7.48131 3.81818 12C3.81818 16.5187 7.48131 20.1818 12 20.1818C16.5187 20.1818 20.1818 16.5187 20.1818 12C20.1818 7.48131 16.5187 3.81818 12 3.81818ZM2 12C2 6.47715 6.47715 2 12 2C17.5228 2 22 6.47715 22 12C22 17.5228 17.5228 22 12 22C6.47715 22 2 17.5228 2 12ZM11.0909 7.45455C11.0909 6.95247 11.4979 6.54545 12 6.54545H12.0091C12.5112 6.54545 12.9182 6.95247 12.9182 7.45455C12.9182 7.95662 12.5112 8.36364 12.0091 8.36364H12C11.4979 8.36364 11.0909 7.95662 11.0909 7.45455ZM12 10.1818C12.5021 10.1818 12.9091 10.5888 12.9091 11.0909V16.5455C12.9091 17.0475 12.5021 17.4545 12 17.4545C11.4979 17.4545 11.0909 17.0475 11.0909 16.5455V11.0909C11.0909 10.5888 11.4979 10.1818 12 10.1818Z" fill="#E8E8E8"/>
</svg>
