<svg width="16" height="14" viewBox="0 0 16 14" fill="none" xmlns="http://www.w3.org/2000/svg">
<path fill-rule="evenodd" clip-rule="evenodd" d="M7.70686 13.7071C7.31634 14.0976 6.68317 14.0976 6.29265 13.7071L0.292648 7.70711C0.105112 7.51957 -0.000244141 7.26522 -0.000244141 7C-0.000244141 6.73478 0.105112 6.48043 0.292648 6.29289L6.29265 0.292893C6.68317 -0.0976315 7.31634 -0.0976315 7.70686 0.292893C8.09739 0.683417 8.09739 1.31658 7.70686 1.70711L3.41397 6H14.9998C15.552 6 15.9998 6.44772 15.9998 7C15.9998 7.55228 15.552 8 14.9998 8H3.41397L7.70686 12.2929C8.09739 12.6834 8.09739 13.3166 7.70686 13.7071Z" fill="#FFFFFF"/>
</svg>
