<svg width="16" height="16" viewBox="0 0 16 16" fill="none" xmlns="http://www.w3.org/2000/svg">
<g clip-path="url(#clip0_6393_111370)">
<path d="M7.33333 6.00002C6.96514 6.00002 6.66667 6.2985 6.66667 6.66669C6.66667 7.03488 6.96514 7.33335 7.33333 7.33335V6.00002Z" fill="#C3C5CB"/>
<path d="M8.66667 10C9.03486 10 9.33333 9.70154 9.33333 9.33335C9.33333 8.96516 9.03486 8.66669 8.66667 8.66669V10Z" fill="#C3C5CB"/>
<path fill-rule="evenodd" clip-rule="evenodd" d="M0.666666 8.00002C0.666666 3.94993 3.94991 0.666687 8 0.666687C12.0501 0.666687 15.3333 3.94993 15.3333 8.00002C15.3333 12.0501 12.0501 15.3334 8 15.3334C3.94991 15.3334 0.666666 12.0501 0.666666 8.00002ZM8.66667 4.33335C8.66667 3.96516 8.36819 3.66669 8 3.66669C7.63181 3.66669 7.33333 3.96516 7.33333 4.33335V4.66669C6.22876 4.66669 5.33333 5.56212 5.33333 6.66669C5.33333 7.77126 6.22876 8.66669 7.33333 8.66669V10H6C5.63181 10 5.33333 10.2985 5.33333 10.6667C5.33333 11.0349 5.63181 11.3334 6 11.3334H7.33333V11.6667C7.33333 12.0349 7.63181 12.3334 8 12.3334C8.36819 12.3334 8.66667 12.0349 8.66667 11.6667V11.3334C9.77124 11.3334 10.6667 10.4379 10.6667 9.33335C10.6667 8.22878 9.77124 7.33335 8.66667 7.33335V6.00002H10C10.3682 6.00002 10.6667 5.70154 10.6667 5.33335C10.6667 4.96516 10.3682 4.66669 10 4.66669H8.66667V4.33335Z" fill="#C3C5CB"/>
</g>
<defs>
<clipPath id="clip0_6393_111370">
<rect width="16" height="16" fill="white"/>
</clipPath>
</defs>
</svg>
