<svg width="24" height="24" viewBox="0 0 24 24" fill="none" xmlns="http://www.w3.org/2000/svg">
<rect width="24" height="24" rx="12" fill="#222429"/>
<path d="M11.267 13.4347V13.3239C11.2699 12.8097 11.3182 12.4006 11.4119 12.0966C11.5085 11.7926 11.6449 11.5483 11.821 11.3636C11.9972 11.1761 12.2116 11.0043 12.4645 10.848C12.6378 10.7401 12.7926 10.6222 12.929 10.4943C13.0682 10.3636 13.1776 10.2187 13.2571 10.0597C13.3366 9.89773 13.3764 9.71733 13.3764 9.51847C13.3764 9.29403 13.3239 9.09943 13.2188 8.93466C13.1136 8.76989 12.9716 8.64205 12.7926 8.55114C12.6165 8.46023 12.419 8.41477 12.2003 8.41477C11.9986 8.41477 11.8068 8.45881 11.625 8.54688C11.446 8.6321 11.2969 8.76278 11.1776 8.93892C11.0611 9.11222 10.9957 9.33239 10.9815 9.59943H9.46449C9.47869 9.05966 9.60938 8.60795 9.85653 8.24432C10.1065 7.88068 10.4361 7.60795 10.8452 7.42614C11.2571 7.24432 11.7116 7.15341 12.2088 7.15341C12.7514 7.15341 13.2287 7.24858 13.6406 7.43892C14.0554 7.62926 14.3778 7.90057 14.608 8.25284C14.8409 8.60227 14.9574 9.01705 14.9574 9.49716C14.9574 9.82102 14.9048 10.1108 14.7997 10.3665C14.6974 10.6222 14.5511 10.8494 14.3608 11.0483C14.1705 11.2472 13.9446 11.4247 13.6832 11.581C13.4531 11.723 13.2642 11.8707 13.1165 12.0241C12.9716 12.1776 12.8636 12.358 12.7926 12.5653C12.7244 12.7699 12.6889 13.0227 12.6861 13.3239V13.4347H11.267ZM12.0085 16.0938C11.7528 16.0938 11.5327 16.0028 11.348 15.821C11.1634 15.6392 11.071 15.4176 11.071 15.1562C11.071 14.9006 11.1634 14.6818 11.348 14.5C11.5327 14.3182 11.7528 14.2273 12.0085 14.2273C12.2614 14.2273 12.4801 14.3182 12.6648 14.5C12.8523 14.6818 12.946 14.9006 12.946 15.1562C12.946 15.3295 12.902 15.4872 12.8139 15.6293C12.7287 15.7713 12.6151 15.8849 12.473 15.9702C12.3338 16.0526 12.179 16.0938 12.0085 16.0938Z" fill="#E8E8E8"/>
</svg>
