<svg width="16" height="16" viewBox="0 0 16 16" fill="none" xmlns="http://www.w3.org/2000/svg">
<path d="M3.33333 6.00002H1" stroke="#C3C5CB" stroke-linecap="round" stroke-linejoin="round"/>
<path d="M3.33333 10H2.33333" stroke="#C3C5CB" stroke-linecap="round" stroke-linejoin="round"/>
<path d="M3.33333 8.00002H1.66667" stroke="#C3C5CB" stroke-linecap="round" stroke-linejoin="round"/>
<path d="M3.75732 3.75735C5.47331 2.04136 8.05402 1.52803 10.2961 2.45671C12.5381 3.3854 14 5.57322 14 7.99999C14 10.4268 12.5381 12.6146 10.2961 13.5433C8.05402 14.472 5.47331 13.9586 3.75732 12.2426" stroke="#C3C5CB" stroke-linecap="round" stroke-linejoin="round"/>
<path d="M8 5V5.66667" stroke="#C3C5CB" stroke-linecap="round" stroke-linejoin="round"/>
<path d="M8 11V10.3333" stroke="#C3C5CB" stroke-linecap="round" stroke-linejoin="round"/>
<path d="M9.46181 6.61413C9.23611 6.01105 8.64266 5.62643 8 5.66672C7.25378 5.59592 6.58763 6.13407 6.5 6.8785C6.5 7.3562 6.83717 7.76748 7.30559 7.86117L8.69441 8.13893C9.16283 8.23262 9.5 8.6439 9.5 9.1216C9.41237 9.86603 8.74622 10.4042 8 10.3334C7.35734 10.3737 6.76389 9.98905 6.53819 9.38597" stroke="#C3C5CB" stroke-linecap="round" stroke-linejoin="round"/>
</svg>
