<svg width="18" height="18" viewBox="0 0 18 18" fill="none" xmlns="http://www.w3.org/2000/svg">
<path d="M10.3023 10.3011C9.95706 10.6463 9.48883 10.8403 9.0006 10.8403C8.51237 10.8403 8.04414 10.6463 7.69891 10.3011C7.35368 9.95587 7.15973 9.48764 7.15973 8.99941C7.15973 8.51118 7.35368 8.04295 7.69891 7.69772C8.04414 7.35249 8.51237 7.15854 9.0006 7.15854C9.48883 7.15854 9.95706 7.35249 10.3023 7.69772C10.6475 8.04295 10.8415 8.51118 10.8415 8.99941C10.8415 9.48764 10.6475 9.95587 10.3023 10.3011Z" stroke="#E8E8E8" stroke-width="1.22725"/>
<path d="M14.8859 13.3716L14.8859 13.3716L14.8907 13.3764L14.9398 13.4255L14.9399 13.4256C15.1319 13.6175 15.2398 13.8778 15.2399 14.1493C15.2399 14.4207 15.1322 14.6811 14.9403 14.873C14.7484 15.065 14.4881 15.1729 14.2167 15.173C13.9453 15.1731 13.685 15.0654 13.493 14.8735C13.493 14.8735 13.4929 14.8735 13.4929 14.8734L13.4439 14.8245L13.4439 14.8244L13.4392 14.8198C13.1587 14.5452 12.8022 14.361 12.4159 14.291C12.0307 14.2212 11.6334 14.2682 11.2751 14.4258C10.9245 14.577 10.6256 14.8271 10.415 15.1456C10.2037 15.465 10.0905 15.8392 10.0892 16.2221V16.2242V16.3629C10.0892 16.6342 9.98141 16.8943 9.78958 17.0862C9.59774 17.278 9.33757 17.3858 9.06627 17.3858C8.79498 17.3858 8.5348 17.278 8.34297 17.0862C8.15113 16.8943 8.04336 16.6342 8.04336 16.3629V16.2892V16.2822L8.0432 16.2751C8.0341 15.8811 7.90666 15.4989 7.67744 15.1783C7.45196 14.863 7.13827 14.6215 6.77604 14.4843C6.42181 14.3322 6.0305 14.2876 5.65092 14.3565C5.26499 14.4265 4.90887 14.6104 4.62845 14.8847L4.62842 14.8847L4.62358 14.8895L4.57449 14.9386L4.57448 14.9386L4.57209 14.941C4.40516 15.1098 4.18469 15.2152 3.94851 15.2392C3.71233 15.2632 3.47517 15.2042 3.27771 15.0724L2.99387 15.4977L3.27771 15.0724C3.08026 14.9407 2.93482 14.7443 2.86636 14.5169C2.7979 14.2896 2.81069 14.0456 2.90252 13.8267L2.90253 13.8267L2.90371 13.8238C2.95524 13.6992 3.02969 13.5883 3.12296 13.4965L3.12297 13.4965L3.12647 13.493L3.17556 13.4439L3.17558 13.444L3.18021 13.4392C3.4548 13.1587 3.63899 12.8022 3.70899 12.4159C3.77881 12.0307 3.73186 11.6334 3.57423 11.2751C3.4229 10.9242 3.17248 10.6251 2.85365 10.4145L2.51538 10.9264L2.85365 10.4145C2.53391 10.2032 2.15936 10.0902 1.77614 10.0892H1.7746H1.63714C1.36569 10.0892 1.10535 9.98135 0.913405 9.7894C0.721458 9.59746 0.613623 9.33712 0.613623 9.06567C0.613623 8.79421 0.721458 8.53387 0.913405 8.34192C1.10535 8.14998 1.36569 8.04214 1.63714 8.04214H1.71078H1.71786L1.72494 8.04198C2.11894 8.03288 2.5011 7.90544 2.82169 7.67621C3.13704 7.45074 3.37848 7.13705 3.51576 6.77481C3.66785 6.42059 3.71237 6.02928 3.64353 5.6497C3.57353 5.26377 3.38956 4.90765 3.11533 4.62723L3.11536 4.6272L3.11052 4.62235L3.06143 4.57327L3.06131 4.57315C2.86932 4.38127 2.76143 4.12097 2.76135 3.84953C2.76128 3.57809 2.86904 3.31773 3.06093 3.12575C3.25282 2.93376 3.51311 2.82586 3.78455 2.82579C4.05594 2.82571 4.31624 2.93343 4.50822 3.12525C4.50826 3.12528 4.50829 3.12532 4.50833 3.12536L4.55731 3.17434L4.55728 3.17436L4.562 3.17898C4.84258 3.45358 5.19902 3.63777 5.58531 3.70777C5.9252 3.76936 6.27446 3.74007 6.59807 3.62406H6.67197L6.78766 3.57452C7.13985 3.42371 7.44023 3.17318 7.65179 2.85377C7.86335 2.53437 7.97685 2.16005 7.97831 1.77694H7.97832V1.7746V1.63592C7.97832 1.36479 8.08603 1.10476 8.27774 0.913046C8.46946 0.721329 8.72948 0.613623 9.00061 0.613623C9.27174 0.613623 9.53177 0.721328 9.72348 0.913046C9.9152 1.10476 10.0229 1.36479 10.0229 1.63592L10.0229 1.70955L10.0229 1.71189C10.0244 2.09501 10.1379 2.46932 10.3494 2.78873C10.5604 3.10721 10.8596 3.35722 11.2105 3.50817C11.5686 3.66538 11.9655 3.7121 12.3503 3.6423C12.7362 3.57231 13.0924 3.38834 13.3728 3.11411L13.3728 3.11414L13.3777 3.10929L13.4267 3.0602L13.4269 3.06009C13.6187 2.8681 13.879 2.7602 14.1505 2.76013C14.4219 2.76006 14.6823 2.86782 14.8743 3.0597C15.0662 3.25159 15.1741 3.51189 15.1742 3.78333C15.1743 4.05472 15.0666 4.31502 14.8748 4.507C14.8747 4.50703 14.8747 4.50707 14.8746 4.50711L14.8257 4.55609L14.8256 4.55606L14.821 4.56078C14.5464 4.84135 14.3622 5.19779 14.2922 5.58408C14.2306 5.92397 14.2599 6.27324 14.3759 6.59685V6.67075L14.4255 6.78644C14.5763 7.13863 14.8268 7.43901 15.1462 7.65057C15.4656 7.86213 15.84 7.97563 16.2231 7.9771H16.2254H16.3641C16.6352 7.9771 16.8952 8.0848 17.087 8.27652C17.2787 8.46824 17.3864 8.72826 17.3864 8.99939C17.3864 9.27052 17.2787 9.53055 17.087 9.72227C16.8952 9.91398 16.6352 10.0217 16.3641 10.0217L16.2904 10.0217L16.2881 10.0217C15.905 10.0232 15.5307 10.1367 15.2113 10.3482C14.8928 10.5592 14.6428 10.8584 14.4919 11.2092C14.3346 11.5673 14.2879 11.9642 14.3577 12.3491C14.4277 12.735 14.6117 13.0911 14.8859 13.3716Z" stroke="#E8E8E8" stroke-width="1.22725"/>
</svg>
