<svg width="16" height="16" viewBox="0 0 16 16" fill="none" xmlns="http://www.w3.org/2000/svg">
<path fill-rule="evenodd" clip-rule="evenodd" d="M8 1.33331C4.3181 1.33331 1.33333 4.31808 1.33333 7.99998C1.33333 11.6819 4.3181 14.6666 8 14.6666C11.6819 14.6666 14.6667 11.6819 14.6667 7.99998C14.6667 4.31808 11.6819 1.33331 8 1.33331ZM8.66667 4.66665C8.66667 4.29846 8.36819 3.99998 8 3.99998C7.63181 3.99998 7.33333 4.29846 7.33333 4.66665V7.99998C7.33333 8.23416 7.4562 8.45116 7.657 8.57164L9.32367 9.57164C9.63939 9.76107 10.0489 9.6587 10.2383 9.34298C10.4278 9.02726 10.3254 8.61775 10.0097 8.42832L8.66667 7.62252V4.66665Z" fill="#C3C5CB"/>
</svg>
