<svg width="88" height="128" viewBox="0 0 88 128" fill="none" xmlns="http://www.w3.org/2000/svg">
<g clip-path="url(#clip0_6683_98085)">
<path d="M81.5271 -8C81.5271 -8 83.4272 1.52196 64.1445 16.5484C44.8618 31.5749 43.76 71.8243 43.76 71.8243" stroke="url(#paint0_linear_6683_98085)" stroke-width="3"/>
<path d="M7.0342 -8C7.0342 -8 5.43737 1.52194 24.0664 16.5484C42.6955 31.5748 43.76 71.8243 43.76 71.8243" stroke="url(#paint1_linear_6683_98085)" stroke-width="3"/>
<line x1="44.5713" y1="-8" x2="44.5713" y2="72" stroke="url(#paint2_linear_6683_98085)" stroke-width="3"/>
<g clip-path="url(#clip1_6683_98085)">
<rect y="40" width="88" height="88" rx="44" fill="black"/>
<path fill-rule="evenodd" clip-rule="evenodd" d="M23.7494 104.901C28.8858 109.878 35.8514 112.979 43.5406 113.098L43.5406 104.362C38.2632 104.246 33.4808 102.122 29.9267 98.7234L23.7494 104.901ZM58.7236 69.9265C62.1217 73.4806 64.2458 78.2629 64.3627 83.5403H73.0986C72.9795 75.8512 69.8784 68.8856 64.9008 63.7492L58.7236 69.9265ZM64.2509 63.0993L58.0736 69.2765C54.5196 65.8784 49.7372 63.7542 44.4598 63.6374L44.4598 54.9014C52.1489 55.0205 59.1145 58.1216 64.2509 63.0993ZM29.2767 98.0734L23.0995 104.251C18.1218 99.1143 15.0207 92.1487 14.9016 84.4595H23.6375C23.7544 89.7369 25.8785 94.5193 29.2767 98.0734ZM73.0986 84.4595C72.9795 92.1487 69.8784 99.1142 64.9008 104.251L58.7236 98.0734C62.1217 94.5193 64.2458 89.7369 64.3627 84.4595H73.0986ZM58.0736 98.7233L64.2509 104.901C59.1145 109.878 52.1489 112.979 44.4598 113.098L44.4598 104.362C49.7372 104.246 54.5195 102.121 58.0736 98.7233ZM43.5406 63.6374C38.2632 63.7542 33.4808 65.8783 29.9267 69.2765L23.7494 63.0992C28.8858 58.1216 35.8514 55.0205 43.5406 54.9014L43.5406 63.6374ZM29.2767 69.9264L23.0995 63.7492C18.1218 68.8855 15.0207 75.8511 14.9016 83.5403H23.6375C23.7544 78.2629 25.8786 73.4805 29.2767 69.9264Z" fill="white"/>
<path fill-rule="evenodd" clip-rule="evenodd" d="M44.6941 10.6666V40.0595C44.4632 40.056 44.2318 40.0542 44.0001 40.0542C43.7683 40.0542 43.537 40.056 43.3061 40.0595V10.6666L44.6941 10.6666ZM43.3061 53.2513V40.0595C19.5864 40.4268 0.426924 59.5863 0.0596981 83.3059H-29.3333L-29.3333 84.6939H0.0596981C0.239464 96.3051 4.92233 106.823 12.4389 114.58L12.4045 114.614L13.3859 115.596L13.4203 115.561C21.1766 123.078 31.695 127.761 43.3061 127.94V157.333H44.6941V127.94C56.3052 127.761 66.8236 123.078 74.5798 115.561L74.5864 115.568L75.5679 114.586L75.5613 114.58C83.0778 106.824 87.7607 96.3051 87.9405 84.694H117.333V83.306H87.9405C87.5733 59.5863 68.4137 40.4267 44.6941 40.0595V53.2513C44.4634 53.2462 44.232 53.2436 44.0001 53.2436C43.7682 53.2436 43.5368 53.2462 43.3061 53.2513ZM43.3061 82.3246V53.2513C35.3369 53.4278 28.1152 56.6354 22.7483 61.7668L13.4404 52.4588L12.4589 53.4403L21.7668 62.7482C16.6355 68.1151 13.4279 75.3368 13.2515 83.3059L0.0596981 83.3059C0.0561237 83.5368 0.0543289 83.7682 0.0543289 83.9999C0.0543289 84.2317 0.0561237 84.463 0.0596981 84.6939L13.2515 84.694C13.4279 92.6631 16.6355 99.8848 21.7669 105.252L12.4389 114.58C12.7609 114.912 13.0881 115.239 13.4203 115.561L22.7483 106.233C28.1152 111.365 35.3369 114.572 43.3061 114.749V127.94C43.537 127.944 43.7683 127.946 44.0001 127.946C44.2318 127.946 44.4632 127.944 44.6941 127.94V114.749C52.6632 114.572 59.8849 111.365 65.2518 106.233L74.5798 115.561C74.9121 115.239 75.2393 114.912 75.5613 114.58L66.2333 105.252C71.3647 99.8849 74.5723 92.6632 74.7487 84.694L87.9405 84.694C87.9441 84.4631 87.9459 84.2317 87.9459 83.9999C87.9459 83.7682 87.9441 83.5369 87.9405 83.306L74.7487 83.3059C74.5723 75.3367 71.3647 68.1151 66.2333 62.7482L75.4417 53.5398L74.4602 52.5584L65.2519 61.7667C59.885 56.6353 52.6633 53.4277 44.6941 53.2513V82.3245L44 83.0185L43.3061 82.3246ZM43.3061 83.3059V82.3246L22.7483 61.7668C22.4138 62.0866 22.0866 62.4138 21.7668 62.7482L42.3245 83.3059H13.2515C13.2464 83.5367 13.2438 83.768 13.2438 83.9999C13.2438 84.2319 13.2464 84.4632 13.2515 84.694H42.3246L21.7669 105.252C22.0866 105.586 22.4139 105.913 22.7483 106.233L43.3061 85.6755V114.749C43.5368 114.754 43.7682 114.756 44.0001 114.756C44.232 114.756 44.4634 114.754 44.6941 114.749V85.6755L65.2518 106.233C65.5862 105.913 65.9135 105.586 66.2333 105.252L45.6755 84.694H74.7487C74.7538 84.4632 74.7564 84.2319 74.7564 83.9999C74.7564 83.768 74.7538 83.5367 74.7487 83.3059H45.6756L66.2333 62.7482C65.9136 62.4137 65.5863 62.0865 65.2519 61.7667L44.6941 82.3245V83.3059H44.2875L44 83.0185L43.7126 83.3059H43.3061ZM43.3061 83.7125L43.7126 83.3059H44.2875L44.6941 83.7126L44.6941 84.2874L44.2876 84.694H43.7125L43.3061 84.2875L43.3061 83.7125ZM43.3061 84.694H42.3246L43.0186 84L43.3061 84.2875V84.694ZM43.3061 84.694H43.7125L44 84.9815L43.3061 85.6755V84.694ZM44.6941 84.694V85.6755L44 84.9815L44.2876 84.694H44.6941ZM44.6941 84.694V84.2874L44.9815 84L45.6755 84.694H44.6941ZM43.3061 83.7125L43.0186 84L42.3245 83.3059H43.3061V83.7125ZM44.6941 83.7126V83.3059H45.6756L44.9815 84L44.6941 83.7126Z" fill="#47494C"/>
<path d="M65.1245 83.9999C65.1245 89.6428 62.8829 95.0546 58.8927 99.0448C54.9025 103.035 49.4907 105.277 43.8478 105.277C38.2049 105.277 32.793 103.035 28.8029 99.0448C24.8127 95.0546 22.5711 89.6428 22.5711 83.9999L27.9889 83.9999C27.9889 88.2059 29.6597 92.2397 32.6338 95.2139C35.608 98.188 39.6417 99.8588 43.8478 99.8588C48.0538 99.8588 52.0876 98.188 55.0618 95.2139C58.0359 92.2397 59.7067 88.2059 59.7067 83.9999L65.1245 83.9999Z" fill="url(#paint3_linear_6683_98085)"/>
</g>
</g>
<defs>
<linearGradient id="paint0_linear_6683_98085" x1="-0.755709" y1="35.1445" x2="54.0885" y2="-47.525" gradientUnits="userSpaceOnUse">
<stop stop-color="#FE3477" stop-opacity="0"/>
<stop offset="1" stop-color="#F0014F"/>
</linearGradient>
<linearGradient id="paint1_linear_6683_98085" x1="87.0295" y1="35.1445" x2="31.5957" y2="-46.0747" gradientUnits="userSpaceOnUse">
<stop stop-color="#FE3477" stop-opacity="0"/>
<stop offset="1" stop-color="#F0014F"/>
</linearGradient>
<linearGradient id="paint2_linear_6683_98085" x1="43.0713" y1="72" x2="53.437" y2="70.5735" gradientUnits="userSpaceOnUse">
<stop offset="0.197385" stop-color="#FE3477" stop-opacity="0"/>
<stop offset="1" stop-color="#F0014F"/>
</linearGradient>
<linearGradient id="paint3_linear_6683_98085" x1="65.1245" y1="105.277" x2="20.9396" y2="103.509" gradientUnits="userSpaceOnUse">
<stop stop-color="#FE3477"/>
<stop offset="1" stop-color="#F0014F"/>
</linearGradient>
<clipPath id="clip0_6683_98085">
<rect width="88" height="128" fill="white"/>
</clipPath>
<clipPath id="clip1_6683_98085">
<rect y="40" width="88" height="88" rx="44" fill="white"/>
</clipPath>
</defs>
</svg>
