<svg width="15" height="14" viewBox="0 0 15 14" fill="none" xmlns="http://www.w3.org/2000/svg">
<path fill-rule="evenodd" clip-rule="evenodd" d="M2.1665 1.66659C1.79831 1.66659 1.49984 1.96506 1.49984 2.33325V2.99992H10.1665V2.33325C10.1665 1.96506 9.86803 1.66659 9.49984 1.66659H2.1665ZM11.4998 2.99992V2.33325C11.4998 1.22868 10.6044 0.333252 9.49984 0.333252H2.1665C1.06193 0.333252 0.166504 1.22868 0.166504 2.33325V3.66659V11.6666C0.166504 12.7712 1.06193 13.6666 2.1665 13.6666H12.8332C13.9377 13.6666 14.8332 12.7712 14.8332 11.6666V9.66659V6.99992V4.99992C14.8332 3.89535 13.9377 2.99992 12.8332 2.99992H11.4998ZM1.49984 4.33325V11.6666C1.49984 12.0348 1.79831 12.3333 2.1665 12.3333H12.8332C13.2014 12.3333 13.4998 12.0348 13.4998 11.6666V10.3333H12.8332C11.7286 10.3333 10.8332 9.43782 10.8332 8.33325C10.8332 7.22868 11.7286 6.33325 12.8332 6.33325H13.4998V4.99992C13.4998 4.63173 13.2014 4.33325 12.8332 4.33325H10.8332H1.49984ZM13.4998 7.66659H12.8332C12.465 7.66659 12.1665 7.96506 12.1665 8.33325C12.1665 8.70144 12.465 8.99992 12.8332 8.99992H13.4998V7.66659Z" fill="#E8E8E8"/>
</svg>
