<svg width="78" height="15" viewBox="0 0 78 15" fill="none" xmlns="http://www.w3.org/2000/svg">
<g clip-path="url(#clip0_5899_15796)">
<path d="M34.9548 3.86102C32.4684 3.86102 31.3568 5.50682 31.3568 7.7855V8.26485C31.3568 10.522 32.4684 12.1893 34.9548 12.1893C37.4412 12.1893 38.5527 10.5227 38.5527 8.26485V7.7855C38.5527 5.50751 37.4412 3.86102 34.9548 3.86102ZM36.6006 8.26485C36.6006 9.62651 36.0934 10.4803 34.9548 10.4803C33.8161 10.4803 33.309 9.62581 33.309 8.26485V7.7855C33.309 6.40301 33.8161 5.54919 34.9548 5.54919C36.0934 5.54919 36.6006 6.4037 36.6006 7.7855V8.26485Z" fill="white"/>
<path d="M26.9877 3.84713C24.543 3.84713 23.4801 5.49292 23.4801 7.7716V8.25096C23.4801 10.5151 24.543 12.1754 26.9877 12.1754C29.2379 12.1754 30.2869 10.918 30.2869 9.4042V9.09157H28.4466C28.4466 9.86966 28.0298 10.4741 27.0363 10.4741C25.8901 10.481 25.4322 9.62651 25.4322 8.2586V7.77925C25.4322 6.39675 25.8977 5.54294 27.0363 5.54294C27.9951 5.54294 28.4466 6.1404 28.4466 7.07133H30.2869V6.74481C30.2869 5.1407 29.2379 3.84852 26.9877 3.84852V3.84713Z" fill="white"/>
<path d="M44.3175 3.85408C43.0601 3.85408 42.234 4.38206 41.7408 5.09763L41.5602 4.0486H39.8379L39.9699 6.2988V11.9941H41.9214V6.46553C42.1437 6.09038 42.6578 5.5485 43.5672 5.5485C44.4766 5.5485 44.8247 6.10428 44.8247 6.86847V11.9941H46.7622V6.55584C46.7622 5.11777 46.0606 3.85408 44.3175 3.85408Z" fill="white"/>
<path d="M78.0107 5.75066V4.04235H75.8161V1.7984H73.8646V4.0486H69.7526L68.3006 6.91015L66.8278 4.0486H64.5707L66.7306 7.93139L64.5707 11.9948H66.7861L68.2867 8.93873L69.8012 11.9948H72.0167L69.8568 7.93139L71.0663 5.75761H73.8646V9.39725C73.8646 11.4529 75.004 12.1824 76.6359 12.1824C77.3375 12.1824 77.7474 12.0504 77.8655 11.9879V10.3699C77.7752 10.4115 77.3862 10.4741 77.1013 10.4741C76.2885 10.4741 75.8092 10.2518 75.8092 9.18188V5.75066H78.0107Z" fill="white"/>
<path d="M60.1745 3.84713C57.7159 3.84713 56.5349 5.55545 56.5349 7.82023V8.20928C56.5349 10.4734 57.6881 12.1824 60.2509 12.1824C62.5289 12.1824 63.7308 10.9249 63.7308 9.50146V9.43893H61.8904C61.8904 10.0364 61.3347 10.6686 60.2724 10.6686C59.2102 10.6686 58.5641 10.0364 58.4877 8.73796H63.7315V7.82093C63.7315 5.55684 62.6199 3.84782 60.1752 3.84782L60.1745 3.84713ZM58.4801 7.29919C58.5634 6.04175 59.0845 5.36857 60.1328 5.36857C61.1811 5.36857 61.7098 6.04245 61.7647 7.29919H58.4794H58.4801Z" fill="white"/>
<path d="M52.7632 3.85408C51.5058 3.85408 50.6798 4.38206 50.1865 5.09763L50.0059 4.0486H48.2837L48.4157 6.2988V11.9941H50.3671V6.46553C50.5894 6.09038 51.1035 5.5485 52.0129 5.5485C52.9223 5.5485 53.2704 6.10428 53.2704 6.86847V11.9941H55.2079V6.55584C55.2079 5.11777 54.5063 3.85408 52.7632 3.85408Z" fill="white"/>
<path d="M2.94899 8.29266L6.1718 11.4877C6.4219 11.7656 6.52611 12.4603 6.07454 12.9119C5.29645 13.7108 4.32454 12.6895 4.07444 12.4394L1.26847 9.64667C0.295858 8.67476 -0.252971 7.22279 1.14342 5.79931L4.53087 2.43895C4.20991 2.03115 4.02581 1.42327 4.57394 0.875133C5.19919 0.249191 5.84528 0.499985 6.29685 0.950858L6.28365 0.964752L7.4223 2.09715L9.31819 3.99304C9.91565 4.59744 10.2908 5.1949 9.66555 5.81946C9.0403 6.4447 8.29 6.21545 7.69324 5.61799L5.97103 3.89578L3.22758 6.64617C2.65096 7.195 2.37307 7.71604 2.94969 8.29196L2.94899 8.29266ZM16.7156 5.313L13.9165 2.54177C13.6664 2.29167 12.6938 1.27043 11.9164 2.06936C11.4649 2.52093 11.5691 3.21565 11.8192 3.49353L15.042 6.68855C15.6186 7.26517 15.3407 7.78621 14.7641 8.33434L12.0137 11.0847L10.2915 9.36253C9.69403 8.76507 8.94373 8.53581 8.31918 9.16106C7.69393 9.78631 8.06908 10.3838 8.66654 10.9875L10.5624 12.8834L11.7052 14.0262L11.6948 14.0366C12.1464 14.4882 12.7925 14.7591 13.417 14.1339C13.9728 13.5781 13.7762 12.9626 13.4476 12.5541L16.8413 9.16036C18.2655 7.73619 17.7167 6.28492 16.7163 5.31231L16.7156 5.313Z" fill="url(#paint0_linear_5899_15796)"/>
</g>
<defs>
<linearGradient id="paint0_linear_5899_15796" x1="2.27442" y1="3.61025" x2="15.7103" y2="11.3668" gradientUnits="userSpaceOnUse">
<stop stop-color="#29C1FC"/>
<stop offset="0.25" stop-color="#587BFD"/>
<stop offset="0.5" stop-color="#AB00FF"/>
<stop offset="0.75" stop-color="#D86292"/>
<stop offset="1" stop-color="#FBB03B"/>
</linearGradient>
<clipPath id="clip0_5899_15796">
<rect width="77.7107" height="14" fill="white" transform="translate(0.300049 0.5)"/>
</clipPath>
</defs>
</svg>

