<svg width="89" height="17" viewBox="0 0 89 17" fill="none" xmlns="http://www.w3.org/2000/svg">
<path d="M28.8279 9.36502V8.81786C28.8279 7.23981 29.3592 6.26444 30.6597 6.26444C31.754 6.26444 32.2695 6.94641 32.2695 8.00901H34.3709V7.63631C34.3709 5.8045 33.1735 4.32955 30.6042 4.32955C27.8129 4.32955 26.5996 6.20893 26.5996 8.80993V9.35709C26.5996 11.9422 27.8129 13.8375 30.6042 13.8375C33.1735 13.8375 34.3709 12.4022 34.3709 10.6734V10.3166H32.2615C32.2615 11.2048 31.7857 11.8946 30.6518 11.8946C29.3592 11.8946 28.8279 10.9193 28.8279 9.36502ZM39.6998 13.8454C42.5387 13.8454 43.8074 11.9422 43.8074 9.36502V8.81786C43.8074 6.21686 42.5387 4.33748 39.6998 4.33748C36.8609 4.33748 35.5921 6.21686 35.5921 8.81786V9.36502C35.5921 11.9502 36.8609 13.8454 39.6998 13.8454ZM39.6998 11.8946C38.3993 11.8946 37.8204 10.9193 37.8204 9.36502V8.81786C37.8204 7.23981 38.3993 6.26444 39.6998 6.26444C41.0003 6.26444 41.5791 7.23981 41.5791 8.81786V9.36502C41.5791 10.9193 41.0003 11.8946 39.6998 11.8946ZM53.1806 13.6234V7.41427C53.1806 5.77278 52.3796 4.32955 50.3892 4.32955C48.9539 4.32955 48.0103 4.93222 47.4473 5.749L47.2411 4.55158H45.2745L45.4251 7.12086V13.6234H47.6534V7.31118C47.9072 6.88297 48.494 6.26444 49.5328 6.26444C50.5399 6.26444 50.9681 6.89883 50.9681 7.77111V13.6234H53.1806ZM62.8233 13.6234V7.41427C62.8233 5.77278 62.0224 4.32955 60.032 4.32955C58.5967 4.32955 57.653 4.93222 57.09 5.749L56.8838 4.55158H54.9172L55.0679 7.12086V13.6234H57.2962V7.31118C57.5499 6.88297 58.1367 6.26444 59.1755 6.26444C60.1826 6.26444 60.6109 6.89883 60.6109 7.77111V13.6234H62.8233ZM72.5532 9.91218V8.86544C72.5532 6.2803 71.2845 4.32955 68.4932 4.32955C65.686 4.32955 64.3379 6.2803 64.3379 8.86544V9.30951C64.3379 11.8947 65.6543 13.8454 68.5804 13.8454C71.1814 13.8454 72.5532 12.4101 72.5532 10.7845V10.7131H70.4518C70.4518 11.3951 69.8174 12.1167 68.6042 12.1167C67.3354 12.1167 66.6534 11.3951 66.5662 9.91218H72.5532ZM68.4456 6.05826C69.6588 6.05826 70.2457 6.82746 70.3091 8.26277H66.5583C66.6534 6.82746 67.2482 6.05826 68.4456 6.05826ZM73.5128 4.55158L75.979 8.98439L73.5128 13.6234H76.0424L77.7552 10.1342L79.484 13.6234H82.0136L79.5474 8.98439L82.0136 4.55158H79.4285L77.7711 7.81869L76.09 4.55158H73.5128ZM86.3512 4.55158V1.99023H84.1229V4.55951H80.3562V6.51026H84.1229V10.6655C84.1229 13.0128 85.4234 13.8454 87.287 13.8454C88.0879 13.8454 88.5557 13.6947 88.6905 13.6234V11.7757C88.5875 11.8233 88.1434 11.8946 87.8183 11.8946C86.8905 11.8946 86.3433 11.6409 86.3433 10.4197V6.50233H88.8571V4.55158H86.3512Z" fill="#E8E8E8"/>
<path d="M10.4307 4.49604L8.26585 2.33118L6.96535 1.03068L6.98121 1.01482C6.46577 0.499378 5.72829 0.213903 5.0146 0.927592C4.38814 1.55405 4.59432 2.24395 4.96702 2.71181L1.10517 6.54194C-0.488736 8.16757 0.137725 9.82491 1.24791 10.9351L4.44365 14.1388C4.72912 14.4242 5.83931 15.5899 6.72745 14.678C7.24289 14.1626 7.12395 13.3696 6.83847 13.0524L3.15901 9.40463C2.50083 8.74645 2.81802 8.15171 3.4762 7.52525L6.6085 4.38502L8.57511 6.35163C9.25708 7.0336 10.1135 7.29528 10.8272 6.58159C11.5409 5.8679 11.1127 5.17801 10.4307 4.49604Z" fill="#E8E8E8"/>
<path d="M18.8759 6.01062L15.6802 2.8466C15.3947 2.56113 14.2845 1.39544 13.3964 2.30737C12.8809 2.82281 12.9999 3.6158 13.2854 3.933L16.9648 7.58074C17.623 8.23892 17.3058 8.83366 16.6476 9.46012L13.5074 12.6004L11.5408 10.6337C10.8588 9.95177 10.0024 9.69009 9.2887 10.4038C8.57501 11.1175 9.00322 11.7994 9.68519 12.4893L11.8501 14.6542L13.1505 15.9547L13.1347 15.9705C13.6501 16.486 14.3876 16.7953 15.1013 16.0816C15.7357 15.4472 15.5137 14.7493 15.133 14.2815L19.0107 10.4038C20.6443 8.77815 20.0178 7.12081 18.8759 6.01062Z" fill="#E8E8E8"/>
</svg>
