<svg width="65" height="51" viewBox="0 0 65 51" fill="none" xmlns="http://www.w3.org/2000/svg">
<path d="M66.4997 19.0704C66.4997 19.0143 66.4906 18.959 66.4739 18.9057C66.3309 18.463 65.5655 16.2211 64.5159 15.5853C64.0533 15.3005 63.5817 15.1759 63.1259 15.0551C62.5533 14.9037 62.0129 14.7617 61.4195 14.3066C61.0594 14.0324 60.2542 12.4443 59.5431 11.0434C57.7593 7.52648 56.3894 5.01375 55.0028 4.7085C53.0684 4.27911 50.8325 6.15874 50.0368 6.90542C49.3234 6.57372 48.7804 6.29239 48.4419 6.07429C47.9631 5.76607 47.3073 4.95693 46.613 4.10003C46.3724 3.80279 46.1223 3.49419 45.8631 3.18559C44.4394 1.49835 42.7215 -0.198779 40.8038 0.0189351C38.8639 0.232113 36.3804 3.46049 33.9773 6.58246C33.1387 7.67181 32.3467 8.70096 31.6526 9.4965C30.8027 10.473 30.3602 10.7854 30.1398 10.8752C29.308 11.213 28.3414 11.1047 27.2243 10.9793C25.7622 10.8157 24.1048 10.6287 22.3744 11.4655C21.6777 11.8021 20.8629 12.6631 19.6524 14.3421C19.465 14.5989 19.273 14.87 19.0783 15.1471C16.5048 11.9312 11.9406 8.21973 9.45549 8.7517C9.44372 8.75284 9.43272 8.75435 9.42096 8.75587C9.4073 8.75928 9.3925 8.75814 9.37884 8.76117C8.21089 9.05311 7.01633 10.5988 5.50411 12.5553C3.71611 14.8688 1.49019 17.7488 -1.2025 19.0942C-1.38464 19.1862 -1.5 19.3729 -1.5 19.5766V52.4616C-1.5 52.7588 -1.25866 53 -0.960403 53H12.9222H12.9321H65.9612C66.0298 53 66.0944 52.9845 66.1555 52.9606C66.1759 52.9527 66.1926 52.9406 66.2116 52.9303C66.2499 52.9099 66.2856 52.8879 66.3175 52.8591C66.3357 52.8429 66.3509 52.8251 66.3664 52.8065C66.3922 52.7758 66.4146 52.7437 66.434 52.7069C66.4457 52.6842 66.456 52.6626 66.4647 52.6384C66.47 52.6244 66.4791 52.6126 66.4829 52.5975C66.4909 52.5672 66.4882 52.5365 66.4909 52.5059C66.492 52.4903 66.5 52.4767 66.5 52.4608L66.4997 19.0704ZM53.9761 37.7215C53.6513 37.4076 53.613 37.2357 53.6103 37.2277C53.7021 37.1376 54.3412 36.9638 56.0598 37.3186C60.4623 39.8283 64.3712 41.954 65.4207 42.5224V51.5127C60.2258 48.276 53.6548 41.3705 53.6451 40.2208C53.6519 40.1849 53.6736 40.0754 53.8455 39.9418C54.1892 39.6616 54.3964 39.2507 54.4139 38.8145C54.4302 38.3957 54.2742 38.0069 53.9764 37.7214L53.9761 37.7215ZM65.4205 36.7143C61.6175 31.9561 58.8451 26.258 57.1532 19.7236C59.14 22.4537 61.7523 24.74 64.9564 26.5408C65.0395 26.5878 65.1306 26.6097 65.2205 26.6097C65.29 26.6097 65.3571 26.5919 65.4209 26.5666L65.4205 36.7143ZM54.7698 5.76021C55.7651 5.97869 57.5273 9.4536 58.5807 11.5297C59.62 13.5794 60.234 14.7588 60.7644 15.1618C61.5287 15.7468 62.2307 15.9323 62.8504 16.0963C63.2647 16.2057 63.6233 16.3004 63.9534 16.5033C64.463 16.8119 65.1058 18.2118 65.4208 19.1557V25.5625C61.43 23.3054 58.4038 20.2655 56.4256 16.5264C56.1023 14.8876 55.8378 13.2189 55.6423 11.5635C55.4621 10.0425 54.4683 8.74781 53.0506 8.18627C52.3323 7.89925 51.6887 7.63268 51.1157 7.38656C52.0587 6.57966 53.6273 5.50584 54.7695 5.76029L54.7698 5.76021ZM40.9241 1.08914C42.2776 0.939947 43.6729 2.2857 44.8758 3.68814C44.5662 5.38527 44.6459 7.04672 45.1225 8.62801C45.1608 8.75941 45.1399 8.89685 45.064 9.00552C45.0242 9.06308 44.9327 9.16115 44.7703 9.17251C44.0535 9.22363 43.4923 9.8238 43.4923 10.5395C43.4923 10.6887 43.52 10.8454 43.5713 10.9935L43.7974 11.6326C43.8987 11.9223 43.9295 12.215 43.8881 12.4755C43.2794 16.1113 44.7123 21.4007 45.661 24.9006C46.0317 26.269 46.4521 27.8192 46.3975 28.1483C46.2943 28.7639 45.9323 29.2448 45.6317 29.5538C43.5853 25.9256 42.4117 20.2284 41.4603 15.603C40.3948 10.4196 39.7824 7.68619 38.556 7.05534C37.3827 6.45707 35.9365 6.83345 34.6711 7.45027C34.7257 7.37909 34.7784 7.31093 34.8342 7.23898C36.8864 4.57135 39.4405 1.2529 40.9242 1.08966L40.9241 1.08914ZM24.0961 23.6865C24.1826 24.5259 24.2532 25.393 24.3097 26.2193C23.6772 23.9962 23.1159 22.0992 22.458 21.223C21.1674 19.5103 19.1597 19.1457 19.0743 19.1313C18.7814 19.0817 18.5006 19.2771 18.4505 19.5698C18.3993 19.8629 18.5966 20.1419 18.8899 20.1923C18.9062 20.195 20.5588 20.4949 21.5943 21.8701C22.1696 22.6362 22.757 24.7035 23.3793 26.8929C23.747 28.1856 24.1269 29.5222 24.5542 30.7885C25.0205 32.1706 25.4782 33.2607 25.9484 34.096C24.5136 33.0672 23.431 31.4758 22.5685 30.2081C21.8756 29.1891 21.3747 28.4531 20.8263 28.1486C19.8424 27.5999 18.7768 27.7813 18.0938 28.0058C17.9265 27.071 17.4533 25.5336 16.1203 24.949C15.3685 24.615 14.1967 24.7195 12.9984 24.9922C15.0274 23.0209 16.9717 20.155 18.7529 17.5294C19.0235 17.1303 19.2883 16.7403 19.5464 16.3639C19.7714 16.036 19.99 15.7248 20.2059 15.4215C21.0069 16.0595 22.7354 17.6176 23.4032 19.6435C23.6738 20.4564 23.9068 21.8169 24.0961 23.6867L24.0961 23.6865ZM17.3033 35.5406C16.4123 35.9783 15.836 36.9014 15.836 37.8924C15.836 38.229 15.7316 38.549 15.5316 38.8243C15.3411 39.0908 15.0706 39.2885 14.753 39.3941L14.0324 39.6266C12.9156 39.9935 12.1783 41.0254 12.1988 42.1946L12.373 51.922H6.23669L5.89404 38.7903C5.88038 38.195 5.61552 37.6263 5.16813 37.2306C4.71695 36.8311 4.1117 36.6361 3.49048 36.6963L3.36791 36.7077C3.0484 36.7077 2.78164 36.4498 2.77367 36.131C2.75736 35.6145 2.47807 35.1533 2.02575 34.897C1.57458 34.6422 1.03577 34.6395 0.585714 34.8902L0.169439 35.12C1.61482 31.5122 4.47061 26.0919 6.91326 26.0919C7.66194 26.0919 8.45423 26.4141 9.33502 27.076C10.4567 27.9241 11.5731 29.2081 12.7563 30.5675C14.2081 32.237 15.71 33.9636 17.445 35.1507C17.5303 35.2079 17.6127 35.2794 17.6958 35.3468L17.3033 35.5406ZM6.35923 13.2137C7.51474 11.718 8.61138 10.3015 9.40668 9.8997C11.8653 11.8569 13.3053 14.5514 13.6696 17.926C13.6992 18.2024 13.9329 18.4068 14.2054 18.4068C14.2244 18.4068 14.2437 18.4057 14.2638 18.4034C14.5602 18.3716 14.7746 18.1062 14.7427 17.8105C14.4038 14.67 13.1968 12.0697 11.175 10.0406C13.3344 10.8831 16.4977 13.5688 18.4352 16.0785C18.2451 16.3568 18.0557 16.6348 17.8592 16.9241C15.4769 20.436 12.5121 24.8053 9.76069 26.0276C9.75196 26.031 9.74285 26.034 9.73412 26.0378C8.7525 25.3528 7.82731 25.0146 6.91359 25.0146C3.77356 25.015 0.976151 30.4608 -0.421049 33.7308V19.9021C2.35246 18.3974 4.56702 15.5317 6.3592 13.2137L6.35923 13.2137ZM38.8301 51.9215C35.3033 46.7655 30.5733 42.0788 24.7541 37.995C24.5674 37.8639 24.3193 37.8647 24.1329 37.995C23.9462 38.1264 23.8631 38.3596 23.9235 38.5788C25.1477 42.9856 27.638 47.4696 31.3321 51.9209H30.3725C25.8956 47.2775 22.3636 42.0772 19.8792 36.4531C19.6602 35.9673 19.3741 35.5235 19.033 35.1357C18.7271 34.7851 18.3951 34.4894 18.0516 34.2588C16.4359 33.1527 14.9799 31.4791 13.5721 29.8608C12.5969 28.7396 11.6641 27.6714 10.7098 26.8183C12.5722 26.1306 14.8145 25.5456 15.6834 25.9322C16.9971 26.5078 17.1041 28.7763 17.1049 28.799C17.1125 28.9864 17.2176 29.1564 17.3823 29.2477C17.547 29.3393 17.7469 29.3386 17.9105 29.2465C17.9234 29.2397 19.2576 28.5048 20.3015 29.0875C20.6263 29.2674 21.1359 30.0175 21.6762 30.8115C23.0248 32.7945 24.872 35.5098 27.8637 36.1088C27.8986 36.1156 27.935 36.1194 27.9699 36.1194C28.1935 36.1194 28.3991 35.98 28.4773 35.7627C28.5676 35.5116 28.4598 35.2322 28.2242 35.1061C26.9462 34.4226 25.9569 31.5664 25.6029 30.5202C25.59 30.0602 25.5107 27.5448 25.2952 24.9374C25.7581 25.307 26.3918 25.4043 26.9295 25.1812C27.211 25.0707 27.4584 25.2043 27.5545 25.4376C28.839 28.5876 31.2398 31.5187 34.6827 34.1533C36.2009 38.7407 38.1267 42.6631 40.5723 46.1335C41.4754 47.4174 42.4658 48.6613 43.5158 49.8295C43.6221 49.948 43.7701 50.009 43.9173 50.009C44.0459 50.009 44.1746 49.9639 44.2778 49.8715C44.4998 49.6727 44.518 49.3323 44.3188 49.1112C43.4194 48.11 42.569 47.0505 41.7779 45.9589C42.2052 45.534 42.357 44.9168 42.4837 44.3932C42.6533 43.6934 42.7786 43.2561 43.196 43.0872C43.7033 42.8857 44.8444 43.8358 45.6014 44.4659C46.4643 45.1834 47.1455 45.7491 47.7867 45.7654C48.4716 45.7627 48.9703 45.3561 49.3953 44.9827C49.8503 44.5825 50.1489 44.3409 50.5982 44.4113C51.4592 44.5514 54.3002 47.7578 56.5497 50.7772C56.6556 50.9192 56.8184 50.9942 56.9838 50.9942C57.0954 50.9942 57.2085 50.9597 57.3056 50.8881C57.5447 50.7106 57.5944 50.3732 57.4168 50.1346C56.6089 49.0505 52.4929 43.6275 50.7697 43.3481C49.7961 43.1951 49.1786 43.7381 48.682 44.1743C48.3203 44.492 48.0839 44.6881 47.821 44.6881H47.8103C47.5481 44.6817 46.7919 44.0531 46.2921 43.6377C45.1685 42.704 43.8946 41.6449 42.7916 42.0883C41.838 42.4746 41.6137 43.3981 41.4346 44.1402C41.339 44.534 41.2543 44.8252 41.1295 45.032C38.8743 41.7275 37.0772 38.0054 35.6539 33.6625C34.9344 31.4713 34.4069 29.4463 33.9417 27.6598C33.5444 26.1342 33.2014 24.8161 32.8284 23.7389C31.0593 18.6278 25.0558 13.3029 24.8004 13.079C24.5784 12.8829 24.2369 12.9033 24.0389 13.1263C23.8419 13.3494 23.8635 13.6898 24.0871 13.8867C24.147 13.94 30.1326 19.2498 31.8083 24.0909C32.1677 25.1276 32.5062 26.4261 32.8982 27.9304C33.2446 29.2617 33.6267 30.7256 34.0965 32.2955C31.4471 30.0398 29.6226 27.6521 28.554 25.0303C28.2406 24.2677 27.3849 23.8467 26.525 24.1833C26.3323 24.2636 26.1031 24.223 25.9437 24.0803L25.1472 23.3673C24.9533 21.5275 24.7116 20.1575 24.4277 19.3044C23.6563 16.9647 21.7195 15.2373 20.8392 14.5451C21.3632 13.8389 22.2414 12.725 22.8447 12.4334C24.2935 11.7329 25.721 11.8931 27.1038 12.0479C28.3155 12.1835 29.4607 12.313 30.5482 11.8707C31.0419 11.6689 31.627 11.1619 32.4399 10.233C33.4822 9.32008 36.4618 7.19169 38.0628 8.01147C38.8854 8.43442 39.6918 12.3565 40.4029 15.8169C41.2616 19.996 42.301 25.0329 44.0192 28.7567C42.2259 27.5245 41.4593 26.8442 41.1422 26.4776C39.9502 25.0982 38.9865 23.1723 37.9661 21.1333C36.5667 18.3369 35.1197 15.4456 32.8559 13.4413C32.6336 13.2437 32.2913 13.2638 32.094 13.4864C31.8963 13.7087 31.9164 14.0491 32.1391 14.2467C34.2466 16.1127 35.6461 18.9098 37.0004 21.6145C38.0519 23.7157 39.045 25.7001 40.3253 27.1811C40.9924 27.9528 42.5873 29.1478 45.2018 30.8362C47.8356 32.5318 51.088 34.4576 53.8532 36.0547C53.1808 36.138 52.7633 36.3989 52.6055 36.8491C52.4264 37.369 52.6351 37.9218 53.2274 38.4955C53.3223 38.586 53.3386 38.6946 53.3352 38.7696C53.3299 38.8984 53.2672 39.0207 53.1728 39.0975C52.8582 39.3414 52.6552 39.6575 52.5838 40.0222C52.2632 41.8382 59.1751 48.5888 64.0845 51.9209L38.8314 51.9224L38.8301 51.9215Z" fill="url(#paint0_linear_1215_17727)"/>
<defs>
<linearGradient id="paint0_linear_1215_17727" x1="-1.5" y1="0" x2="69.0342" y2="3.61987" gradientUnits="userSpaceOnUse">
<stop stop-color="#FE3477"/>
<stop offset="1" stop-color="#F0014F"/>
</linearGradient>
</defs>
</svg>
