<svg width="210" height="40" viewBox="0 0 210 40" fill="none" xmlns="http://www.w3.org/2000/svg">
<path d="M20 39.9985C31.0457 39.9985 40 31.0445 40 19.9992C40 8.95397 31.0457 0 20 0C8.95431 0 0 8.95397 0 19.9992C0 31.0445 8.95431 39.9985 20 39.9985Z" fill="url(#paint0_linear_72_525)"/>
<path d="M20.0009 30.9933C26.0728 30.9933 30.995 26.0713 30.995 19.9996C30.995 13.9279 26.0728 9.00586 20.0009 9.00586C13.929 9.00586 9.00671 13.9279 9.00671 19.9996C9.00671 26.0713 13.929 30.9933 20.0009 30.9933Z" fill="#101010"/>
<path d="M19.9979 39.9986C22.9283 40.0014 25.8234 39.3587 28.4773 38.116C31.1312 36.8733 33.4787 35.0613 35.3529 32.8087L24.3198 21.7982C23.7507 21.2274 23.0745 20.7745 22.33 20.4654C21.5855 20.1564 20.7873 19.9973 19.9812 19.9973C19.1751 19.9973 18.3769 20.1564 17.6324 20.4654C16.8879 20.7745 16.2117 21.2274 15.6425 21.7982L4.64282 32.8087C6.51709 35.0613 8.86461 36.8733 11.5185 38.116C14.1724 39.3587 17.0674 40.0014 19.9979 39.9986Z" fill="#F5F5FD"/>
<path d="M28.9369 26.3932C27.9209 27.8164 26.5797 28.9765 25.0249 29.7768C23.4701 30.5772 21.7466 30.9948 19.9979 30.9948C18.2492 30.9948 16.5257 30.5772 14.9709 29.7768C13.4161 28.9765 12.0749 27.8164 11.0589 26.3932L4.64282 32.809C6.51875 35.0597 8.86659 36.8705 11.5201 38.1132C14.1736 39.3559 17.0678 40 19.9979 40C22.928 40 25.8222 39.3559 28.4757 38.1132C31.1292 36.8705 33.477 35.0597 35.3529 32.809L28.9369 26.3932Z" fill="black" fill-opacity="0.1"/>
<path d="M54.036 31H57.8153V22.3721H66.6776V19.2959H57.8153V13.041H67.5126V9.8623H54.036V31ZM75.3939 31.3223C77.7084 31.3223 79.3343 30.2822 80.0814 28.5684H80.3304V31H83.9779V14.9893H80.3304V24.3203C80.3304 26.7227 79.0707 28.2461 76.7123 28.2461C74.515 28.2461 73.5921 26.9863 73.5921 24.5107V14.9893H69.9447V25.3457C69.9447 29.1543 71.7904 31.3223 75.3939 31.3223ZM89.0467 12.3086C90.2479 12.3086 91.2293 11.3564 91.2293 10.1553C91.2293 8.96875 90.2479 8.00195 89.0467 8.00195C87.8602 8.00195 86.8787 8.96875 86.8787 10.1553C86.8787 11.3564 87.8602 12.3086 89.0467 12.3086ZM85.4725 36.4639C89.0614 36.4639 90.8778 34.8965 90.8778 31.6152V14.9893H87.2303V31.5713C87.2303 33.0508 86.6151 33.5781 85.0623 33.5781C84.9012 33.5781 84.7401 33.5781 84.5936 33.5635V36.4346C84.7987 36.4492 85.1795 36.4639 85.4725 36.4639ZM96.0198 12.3086C97.2064 12.3086 98.1878 11.3564 98.1878 10.1553C98.1878 8.96875 97.2064 8.00195 96.0198 8.00195C94.8187 8.00195 93.8372 8.96875 93.8372 10.1553C93.8372 11.3564 94.8187 12.3086 96.0198 12.3086ZM94.1888 31H97.8362V14.9893H94.1888V31Z" fill="white"/>
<path d="M103.75 31H107.53V22.3721H116.392V19.2959H107.53V13.041H117.227V9.8623H103.75V31ZM121.68 12.3086C122.867 12.3086 123.848 11.3564 123.848 10.1553C123.848 8.96875 122.867 8.00195 121.68 8.00195C120.479 8.00195 119.498 8.96875 119.498 10.1553C119.498 11.3564 120.479 12.3086 121.68 12.3086ZM119.849 31H123.497V14.9893H119.849V31ZM126.749 31H130.397V21.6689C130.397 19.2666 131.744 17.7432 133.912 17.7432C136.124 17.7432 137.135 19.0029 137.135 21.4932V31H140.782V20.6436C140.782 16.835 138.834 14.6816 135.26 14.6816C132.946 14.6816 131.407 15.7217 130.646 17.4355H130.397V14.9893H126.749V31ZM148.224 31.2637C150.334 31.2637 152.033 30.3555 152.912 28.8027H153.161V31H156.764V20.0576C156.764 16.6738 154.45 14.6816 150.334 14.6816C146.525 14.6816 143.947 16.4688 143.595 19.1641L143.581 19.2959H147.023L147.038 19.2373C147.404 18.1826 148.488 17.582 150.158 17.582C152.121 17.582 153.161 18.4609 153.161 20.0576V21.4346L149.045 21.6836C145.148 21.918 142.966 23.5879 142.966 26.4443V26.4736C142.966 29.3887 145.177 31.2637 148.224 31.2637ZM146.569 26.2979V26.2686C146.569 24.9502 147.521 24.2031 149.557 24.0713L153.161 23.8369V25.126C153.161 27.0303 151.535 28.4658 149.338 28.4658C147.726 28.4658 146.569 27.6602 146.569 26.2979ZM159.914 31H163.562V21.6689C163.562 19.2666 164.909 17.7432 167.077 17.7432C169.289 17.7432 170.3 19.0029 170.3 21.4932V31H173.947V20.6436C173.947 16.835 171.999 14.6816 168.425 14.6816C166.111 14.6816 164.572 15.7217 163.811 17.4355H163.562V14.9893H159.914V31ZM183.894 31.3223C187.952 31.3223 190.31 29.1396 190.838 25.8584L190.867 25.7412L187.424 25.7559L187.395 25.8145C186.941 27.499 185.784 28.3633 183.894 28.3633C181.419 28.3633 179.939 26.3711 179.939 22.9727V22.9434C179.939 19.5889 181.404 17.626 183.894 17.626C185.886 17.626 187.073 18.7393 187.41 20.292L187.424 20.3359H190.867V20.2773C190.457 16.9668 187.996 14.6816 183.88 14.6816C179.06 14.6816 176.233 17.7725 176.233 22.9434V22.9727C176.233 28.2021 179.075 31.3223 183.894 31.3223ZM199.964 31.3223C204.315 31.3223 206.453 28.8174 206.966 26.752L207.01 26.6201H203.538L203.494 26.7227C203.143 27.4551 202.015 28.4512 200.037 28.4512C197.562 28.4512 196.009 26.7812 195.965 23.9102H207.156V22.709C207.156 17.875 204.344 14.6816 199.788 14.6816C195.233 14.6816 192.318 17.9775 192.318 23.0166V23.0312C192.318 28.1289 195.203 31.3223 199.964 31.3223ZM199.832 17.5381C201.868 17.5381 203.348 18.8418 203.597 21.4639H195.994C196.273 18.915 197.796 17.5381 199.832 17.5381Z" fill="white"/>
<defs>
<linearGradient id="paint0_linear_72_525" x1="19.9669" y1="39.9998" x2="19.9669" y2="0" gradientUnits="userSpaceOnUse">
<stop stop-color="#101010"/>
<stop offset="0.653724" stop-color="#F0014F"/>
<stop offset="0.854082" stop-color="#FE0B5C"/>
</linearGradient>
</defs>
</svg>
