<svg width="135" height="32" viewBox="0 0 135 32" fill="none" xmlns="http://www.w3.org/2000/svg">
<path d="M43.627 23.7332V7.11963H55.5399V10.1331H46.764V14.6929H55.1229V17.5873H46.764V23.7332H43.627Z" fill="#F5F5FD"/>
<path d="M60.5431 12.4873V18.6331C60.493 19.0395 60.5329 19.4518 60.66 19.8411C60.7871 20.2303 60.9982 20.5869 61.2785 20.8857C61.5588 21.1845 61.9014 21.4182 62.2821 21.5702C62.6628 21.7222 63.0723 21.7889 63.4817 21.7655C63.8973 21.7531 64.3061 21.6572 64.6838 21.4836C65.0615 21.3101 65.4003 21.0624 65.6801 20.7552C65.9599 20.4481 66.1749 20.0879 66.3122 19.6961C66.4496 19.3043 66.5066 18.8888 66.4798 18.4745V12.527H69.3587V24.2437H66.6584L66.4798 22.6378C65.9811 23.1964 65.3691 23.6426 64.6845 23.9468C63.9998 24.251 63.2582 24.4063 62.5088 24.4023C59.7092 24.4023 57.6642 22.281 57.6642 18.6529V12.4873H60.5431Z" fill="#F5F5FD"/>
<path d="M74.7 12.4474V26.7018C74.7 29.6161 73.4293 31.4796 70.729 31.4796C69.8058 31.4757 68.9031 31.2074 68.1281 30.7065L69.1804 28.4464C69.6153 28.6729 70.0995 28.7887 70.5901 28.7834C71.5431 28.7834 71.7615 27.9904 71.7615 26.8009V12.4474H74.7ZM71.5431 9.21592C71.5887 9.63895 71.7893 10.0302 72.1063 10.3145C72.4234 10.5988 72.8344 10.7561 73.2605 10.7561C73.6866 10.7561 74.0977 10.5988 74.4147 10.3145C74.7318 10.0302 74.9324 9.63895 74.978 9.21592C74.9324 8.7929 74.7318 8.40163 74.4147 8.11734C74.0977 7.83304 73.6866 7.67578 73.2605 7.67578C72.8344 7.67578 72.4234 7.83304 72.1063 8.11734C71.7893 8.40163 71.5887 8.7929 71.5431 9.21592Z" fill="#F5F5FD"/>
<path d="M80.3383 9.21592C80.2927 9.63895 80.0921 10.0302 79.7751 10.3145C79.4581 10.5988 79.047 10.7561 78.6209 10.7561C78.1948 10.7561 77.7837 10.5988 77.4667 10.3145C77.1497 10.0302 76.9491 9.63895 76.9034 9.21592C76.9491 8.7929 77.1497 8.40163 77.4667 8.11734C77.7837 7.83304 78.1948 7.67578 78.6209 7.67578C79.047 7.67578 79.4581 7.83304 79.7751 8.11734C80.0921 8.40163 80.2927 8.7929 80.3383 9.21592ZM77.1814 12.4474V24.2038H80.0802V12.4474H77.1814Z" fill="#F5F5FD"/>
<path d="M99.4108 15.7384C99.4882 16.8582 99.3267 17.9816 98.9369 19.0343C98.5472 20.0871 97.938 21.0453 97.1497 21.8455C96.3615 22.6457 95.4121 23.2697 94.3643 23.6762C93.3166 24.0827 92.1943 24.2626 91.0718 24.2038H84.5197V7.57042H91.0718C92.168 7.51508 93.2638 7.68724 94.2901 8.07604C95.3163 8.46483 96.2507 9.06182 97.0343 9.82932C97.8179 10.5968 98.4336 11.5182 98.8426 12.5352C99.2517 13.5523 99.4451 14.6429 99.4108 15.7384ZM87.6369 21.111H91.0718C91.7785 21.1421 92.4838 21.0219 93.1403 20.7586C93.7968 20.4953 94.3893 20.0949 94.8781 19.5842C95.367 19.0736 95.7409 18.4645 95.9747 17.7978C96.2086 17.1311 96.297 16.4222 96.234 15.7186C96.2679 15.0318 96.1578 14.3455 95.9106 13.7038C95.6634 13.062 95.2847 12.4788 94.7987 11.9917C94.3127 11.5045 93.7301 11.1241 93.0883 10.8749C92.4466 10.6256 91.7597 10.513 91.0718 10.5442H87.6369V21.111Z" fill="#F5F5FD"/>
<path d="M113.329 21.1112H104.613L103.183 24.2039H99.7683L107.254 7.57056H110.688L118.075 24.2039H114.739L113.329 21.1112ZM108.961 11.0994L105.864 18.1374H112.118L108.961 11.0994Z" fill="#F5F5FD"/>
<path d="M134.99 15.9764C135.046 17.1345 134.866 18.2918 134.46 19.3782C134.055 20.4647 133.433 21.4577 132.632 22.297C131.831 23.1362 130.867 23.8044 129.8 24.2609C128.733 24.7175 127.584 24.9529 126.423 24.9529C125.262 24.9529 124.112 24.7175 123.045 24.2609C121.978 23.8044 121.014 23.1362 120.213 22.297C119.412 21.4577 118.79 20.4647 118.385 19.3782C117.98 18.2918 117.799 17.1345 117.855 15.9764C117.799 14.8184 117.98 13.6611 118.385 12.5746C118.79 11.4882 119.412 10.4952 120.213 9.65592C121.014 8.81662 121.978 8.14846 123.045 7.69193C124.112 7.2354 125.262 7 126.423 7C127.584 7 128.733 7.2354 129.8 7.69193C130.867 8.14846 131.831 8.81662 132.632 9.65592C133.433 10.4952 134.055 11.4882 134.46 12.5746C134.866 13.6611 135.046 14.8184 134.99 15.9764ZM120.953 15.9764C120.908 16.7214 121.016 17.4676 121.27 18.1693C121.525 18.871 121.921 19.5132 122.433 20.0566C122.945 20.5999 123.563 21.0329 124.25 21.3288C124.936 21.6247 125.675 21.7774 126.423 21.7774C127.17 21.7774 127.91 21.6247 128.596 21.3288C129.282 21.0329 129.9 20.5999 130.412 20.0566C130.925 19.5132 131.32 18.871 131.575 18.1693C131.83 17.4676 131.938 16.7214 131.893 15.9764C131.973 15.2113 131.891 14.4379 131.652 13.7063C131.414 12.9748 131.024 12.3014 130.509 11.7299C129.993 11.1583 129.363 10.7014 128.659 10.3886C127.955 10.0758 127.193 9.91412 126.423 9.91412C125.652 9.91412 124.89 10.0758 124.186 10.3886C123.483 10.7014 122.852 11.1583 122.337 11.7299C121.821 12.3014 121.431 12.9748 121.193 13.7063C120.954 14.4379 120.873 15.2113 120.953 15.9764Z" fill="#F5F5FD"/>
<path d="M14.5423 29.0847C22.5738 29.0847 29.0847 22.5738 29.0847 14.5423C29.0847 6.51082 22.5738 0 14.5423 0C6.51082 0 0 6.51082 0 14.5423C0 22.5738 6.51082 29.0847 14.5423 29.0847Z" fill="url(#paint0_linear)"/>
<path d="M14.5421 22.5366C18.9571 22.5366 22.5362 18.9576 22.5362 14.5426C22.5362 10.1276 18.9571 6.54858 14.5421 6.54858C10.1271 6.54858 6.5481 10.1276 6.5481 14.5426C6.5481 18.9576 10.1271 22.5366 14.5421 22.5366Z" fill="#101010"/>
<path d="M14.5421 29.0846C16.6729 29.0866 18.7779 28.6192 20.7076 27.7156C22.6373 26.8121 24.3442 25.4944 25.707 23.8565L17.6846 15.8503C17.2708 15.4352 16.7791 15.1059 16.2378 14.8812C15.6965 14.6564 15.1161 14.5408 14.53 14.5408C13.9438 14.5408 13.3635 14.6564 12.8221 14.8812C12.2808 15.1059 11.7891 15.4352 11.3753 15.8503L3.3772 23.8565C4.74001 25.4944 6.44693 26.8121 8.37661 27.7156C10.3063 28.6192 12.4113 29.0866 14.5421 29.0846Z" fill="#F5F5FD"/>
<path d="M21.0418 19.1917C20.303 20.2265 19.3278 21.0701 18.1973 21.652C17.0668 22.234 15.8136 22.5377 14.5421 22.5377C13.2706 22.5377 12.0174 22.234 10.8869 21.652C9.75639 21.0701 8.78118 20.2265 8.04241 19.1917L3.3772 23.8569C4.74122 25.4935 6.44836 26.8102 8.37776 27.7138C10.3071 28.6174 12.4116 29.0858 14.5421 29.0858C16.6726 29.0858 18.7771 28.6174 20.7065 27.7138C22.6359 26.8102 24.343 25.4935 25.707 23.8569L21.0418 19.1917Z" fill="black" fill-opacity="0.07"/>
<defs>
<linearGradient id="paint0_linear" x1="14.5183" y1="29.0856" x2="14.5183" y2="0" gradientUnits="userSpaceOnUse">
<stop stop-color="#101010"/>
<stop offset="0.838542" stop-color="#F0014F"/>
<stop offset="1" stop-color="#FE0B5C"/>
</linearGradient>
</defs>
</svg>
